<?xml version="1.0" standalone="no"?>
<!DOCTYPE svg PUBLIC "-//W3C//DTD SVG 20010904//EN"
 "http://www.w3.org/TR/2001/REC-SVG-20010904/DTD/svg10.dtd">
<svg version="1.0" xmlns="http://www.w3.org/2000/svg"
 width="1280.000000pt" height="1280.000000pt" viewBox="0 0 1280.000000 1280.000000"
 preserveAspectRatio="xMidYMid meet">

<g transform="translate(0.000000,1280.000000) scale(0.100000,-0.100000)"
fill="#000000" stroke="none">
<path d="M2520 8439 c-403 -41 -806 -205 -1122 -457 -530 -422 -833 -1120
-780 -1794 55 -696 421 -1293 1012 -1654 452 -275 999 -368 1525 -259 563 117
1067 474 1368 970 334 552 398 1226 171 1832 -268 717 -908 1235 -1664 1348
-133 19 -387 27 -510 14z m278 -941 l-3 -303 -60 -8 c-33 -4 -93 -14 -133 -23
-257 -55 -475 -233 -587 -478 -55 -119 -69 -193 -69 -351 0 -160 18 -243 80
-368 140 -279 390 -451 702 -482 l72 -7 0 -305 0 -306 -117 6 c-331 17 -657
160 -905 395 -143 137 -241 271 -322 442 -223 474 -181 1009 114 1451 121 180
353 384 549 484 186 93 411 152 594 154 l87 1 -2 -302z m1332 -1553 l0 -655
-305 0 -305 0 -2 353 -3 352 -352 3 -353 2 0 300 0 300 660 0 660 0 0 -655z"/>
<path d="M8515 7589 c-493 -66 -899 -393 -1039 -837 -76 -240 -75 -538 1 -772
119 -364 421 -663 794 -783 166 -54 222 -62 444 -61 190 1 206 2 317 32 372
97 670 338 828 667 86 179 115 313 115 530 0 171 -11 248 -52 378 -132 421
-502 743 -955 832 -99 20 -355 28 -453 14z m393 -430 c93 -23 231 -95 306
-158 126 -107 225 -261 268 -418 30 -111 29 -316 -1 -428 -99 -366 -406 -606
-776 -606 -369 0 -693 248 -791 606 -25 90 -30 284 -10 378 94 456 550 741
1004 626z"/>
<path d="M10979 7585 c-298 -56 -496 -186 -598 -392 -43 -86 -61 -171 -60
-288 0 -187 46 -304 169 -426 101 -101 212 -157 488 -245 429 -136 464 -151
541 -220 35 -32 56 -61 70 -100 24 -63 25 -75 10 -145 -14 -63 -70 -129 -141
-165 -246 -125 -690 -18 -1018 245 l-75 60 -97 -192 -97 -192 32 -28 c137
-121 365 -242 572 -302 265 -77 599 -75 831 5 100 34 130 50 223 113 179 124
281 324 281 550 -1 201 -79 362 -234 483 -113 89 -271 155 -606 255 -311 93
-434 186 -447 338 -6 74 24 133 91 179 73 49 143 65 271 65 180 -2 354 -50
578 -161 l138 -68 14 25 c58 116 166 364 162 375 -8 20 -237 131 -342 165
-171 56 -272 72 -485 77 -142 2 -216 0 -271 -11z"/>
<path d="M5280 6365 l0 -1205 230 0 230 0 0 355 0 355 300 0 c166 0 344 5 397
11 380 42 645 245 737 563 47 162 50 403 6 562 -86 313 -357 512 -755 554 -49
5 -327 10 -617 10 l-528 0 0 -1205z m1153 780 c141 -30 252 -107 302 -209 37
-77 52 -189 37 -289 -28 -193 -142 -307 -353 -354 -58 -13 -137 -16 -374 -17
l-300 -1 -3 443 -2 442 312 0 c235 0 330 -4 381 -15z"/>
</g>
</svg>
