<?xml version="1.0" encoding="UTF-8"?>
<svg version="1.1" xmlns="http://www.w3.org/2000/svg" width="1279" height="469">
<path d="M0 0 C422.07 0 844.14 0 1279 0 C1279 154.77 1279 309.54 1279 469 C856.93 469 434.86 469 0 469 C0 314.23 0 159.46 0 0 Z " fill="#FEFEFE" transform="translate(0,0)"/>
<path d="M0 0 C1.10214844 0.45632812 2.20429688 0.91265625 3.33984375 1.3828125 C45.58715775 18.97438923 86.78271777 49.25542846 108 91 C108 91.66 108 92.32 108 93 C108.66 93 109.32 93 110 93 C112.67814186 96.65201163 114.1497786 100.76020326 115.76953125 104.94921875 C116.94786098 107.87072834 118.22456169 110.73563434 119.52539062 113.60424805 C122.87983045 121.0359125 125.56415836 128.45811721 127.859375 136.28125 C128.6648849 138.90743297 129.52049963 141.33514889 130.54296875 143.8671875 C132.26120762 148.3670775 132.93332087 152.86706548 133.5625 157.625 C133.67529297 158.42550781 133.78808594 159.22601563 133.90429688 160.05078125 C134.14377704 161.75523781 134.37669009 163.46062632 134.60400391 165.16674805 C134.88352271 167.16663442 135.19054137 169.16277014 135.51708984 171.15551758 C137.02197179 180.61293391 137.48418194 189.88115097 137.5 199.4375 C137.50168182 200.23758484 137.50336365 201.03766968 137.50509644 201.86199951 C137.39011024 254.99087944 114.1483246 307.61010188 77.34912109 345.60400391 C76.13250663 346.86288945 74.93421202 348.13941755 73.73828125 349.41796875 C61.87101008 361.81169927 47.11674905 372.02525586 32.3125 380.5625 C31.71179688 380.90949951 31.11109375 381.25649902 30.4921875 381.61401367 C26.25478343 384 26.25478343 384 24 384 C24 384.66 24 385.32 24 386 C17.99408005 389.24319677 11.86979532 391.54642275 5.42578125 393.78515625 C2.67492884 394.76065807 -0.0005482 395.80342752 -2.6875 396.9375 C-13.60927508 401.35306913 -25.06571998 405.21946377 -36.79467773 406.59155273 C-38.75854241 406.84180375 -40.71825856 407.1347393 -42.6640625 407.49975586 C-52.47596729 409.3251283 -62.21089056 409.3378959 -72.16308594 409.31567383 C-75.09869064 409.31252819 -78.03327013 409.33599682 -80.96875 409.36132812 C-97.13291358 409.41663917 -112.61854207 407.66283659 -128.1875 403.1875 C-129.10474854 402.92960693 -130.02199707 402.67171387 -130.96704102 402.40600586 C-175.51421598 389.60107334 -215.66834091 362.61705229 -243 325 C-244.14855469 323.43378906 -244.14855469 323.43378906 -245.3203125 321.8359375 C-264.89590534 294.34825836 -277.90079398 263.4018836 -283 230 C-283.11569336 229.31550781 -283.23138672 228.63101563 -283.35058594 227.92578125 C-292.1851035 175.39054921 -277.23748349 119.82425591 -247.03540039 76.55371094 C-239.77473105 66.36698545 -231.55995975 57.09659331 -223 48 C-222.38382813 47.34128906 -221.76765625 46.68257812 -221.1328125 46.00390625 C-216.16297029 40.85572042 -210.65150322 36.37478891 -205 32 C-204.37222656 31.51225098 -203.74445313 31.02450195 -203.09765625 30.52197266 C-148.37090672 -11.56037673 -64.89163028 -29.45003565 0 0 Z " fill="#0528FE" transform="translate(345,31)"/>
<path d="M0 0 C0.75539063 0.20367187 1.51078125 0.40734375 2.2890625 0.6171875 C23.66478384 6.56713055 41.92512469 17.83815547 58 33 C58.61488281 33.56203125 59.22976563 34.1240625 59.86328125 34.703125 C65.32201208 39.87323328 69.6596801 45.88514222 74 52 C74.98419922 53.38445312 74.98419922 53.38445312 75.98828125 54.796875 C79.74952481 60.37028087 82.18084433 65.69555804 84.10546875 72.1328125 C84.9061729 74.6992616 85.87733255 77.00144167 87 79.4375 C97.05865279 104.50430139 96.00593919 137.58927009 85.875 162.375 C84.32864252 165.95678231 82.69713684 169.48735343 81 173 C80.64131836 173.74507812 80.28263672 174.49015625 79.91308594 175.2578125 C65.14089827 205.16080304 38.44572373 226.52351335 7.1875 237.3125 C-27.01222638 248.30384033 -64.67698891 245.25878874 -96.65795898 229.23754883 C-123.67702973 215.22753201 -142.44090279 193.45821489 -155 166 C-155.5053125 164.91847656 -156.010625 163.83695313 -156.53125 162.72265625 C-160.11608389 154.1644204 -161.55296243 145.45482937 -162.1875 136.25 C-162.26427979 135.16944336 -162.34105957 134.08888672 -162.42016602 132.97558594 C-162.638896 129.65127768 -162.82729772 126.32700021 -163 123 C-163.05349609 121.99195313 -163.10699219 120.98390625 -163.16210938 119.9453125 C-164.51862203 90.29863015 -155.12216747 63.72548811 -136 41 C-135.34644531 40.21238281 -134.69289063 39.42476562 -134.01953125 38.61328125 C-101.72728275 1.14486177 -47.22655241 -13.01139709 0 0 Z " fill="#020202" transform="translate(904,107)"/>
<path d="M0 0 C146.85561497 0 146.85561497 0 174 27 C174.93585938 27.88365234 174.93585938 27.88365234 175.890625 28.78515625 C184.67585256 37.78803585 189.82319536 50.80269795 192 63 C192.16983398 63.91402588 192.33966797 64.82805176 192.51464844 65.76977539 C196.18126758 90.17271193 192.60271413 116.63060895 178 137 C162.67049689 156.21870159 141.96564061 165.98547677 117.9140625 169.28627014 C110.28635767 170.14408691 102.6903791 170.12791267 95.0234375 170.09765625 C93.7753833 170.09664917 92.5273291 170.09564209 91.24145508 170.09460449 C86.61929392 170.0894079 81.99714595 170.07544687 77.375 170.0625 C67.02125 170.041875 56.6675 170.02125 46 170 C46 193.43 46 216.86 46 241 C30.82 241 15.64 241 0 241 C0 161.47 0 81.94 0 0 Z " fill="#010101" transform="translate(527,106)"/>
<path d="M0 0 C0.92683594 0.474375 1.85367187 0.94875 2.80859375 1.4375 C5.0625 2.6875 5.0625 2.6875 8 5 C8.6875 7.5625 8.6875 7.5625 8 10 C7.53078125 10.61359375 7.0615625 11.2271875 6.578125 11.859375 C4.93141859 14.09302627 4.03470466 16.0963451 3.0625 18.6875 C0.67301497 24.86563621 -1.74328303 30.97615578 -5.125 36.6875 C-6.86698527 39.76500732 -8.00985617 42.61700857 -9 46 C-12.35392449 44.70061466 -15.57114917 43.265349 -18.78125 41.64453125 C-31.54107387 35.30284258 -44.26737911 29.86652312 -58 26 C-58.68352539 25.79826172 -59.36705078 25.59652344 -60.07128906 25.38867188 C-67.28603609 23.49661036 -74.58467634 23.63226993 -82 23.625 C-83.31484375 23.60050781 -84.6296875 23.57601562 -85.984375 23.55078125 C-93.58096502 23.52789995 -99.41937153 24.08111695 -106 28 C-107.093125 28.639375 -108.18625 29.27875 -109.3125 29.9375 C-113.06450185 32.81694328 -115.49771458 35.49314375 -117 40 C-117.67143537 47.42981764 -117.68383899 53.93258798 -113 60 C-101.3466786 72.95908468 -83.25260543 77.70117687 -67 82.3125 C-47.1395568 87.98320402 -25.86947079 94.27920031 -10 108 C-9.30261719 108.56589844 -8.60523438 109.13179687 -7.88671875 109.71484375 C-1.77856503 114.78771718 3.39801375 120.3798974 6 128 C7.01812981 130.24648077 8.05485882 132.48362193 9.09765625 134.71875 C11.58784476 141.01429152 11.21904402 147.58672633 11.25 154.25 C11.2809375 155.89162109 11.2809375 155.89162109 11.3125 157.56640625 C11.34506981 164.36535329 10.46924664 169.69578765 8 176 C7.61661211 177.60218271 7.23972655 179.20596639 6.875 180.8125 C4.882059 187.58217262 0.39835065 192.61488894 -4 198 C-4.72509766 198.99 -4.72509766 198.99 -5.46484375 200 C-16.15887693 214.04201318 -36.3043278 221.60634908 -53 225 C-53.85005615 225.17587646 -54.7001123 225.35175293 -55.57592773 225.53295898 C-63.93255301 227.10356283 -72.20919417 227.44020166 -80.6875 227.4375 C-81.40421875 227.4385675 -82.1209375 227.43963501 -82.859375 227.44073486 C-109.14367862 227.38466518 -133.00122559 220.41884118 -156 208 C-157.05960938 207.43410156 -158.11921875 206.86820313 -159.2109375 206.28515625 C-164.79955871 203.16814311 -170.05162725 199.68159634 -175.1875 195.875 C-175.75299561 195.46717285 -176.31849121 195.0593457 -176.90112305 194.63916016 C-179.25812646 192.83415244 -180.82237397 191.51282528 -181.80664062 188.67114258 C-182.05023276 185.30606491 -181.23663338 183.77162949 -179.61328125 180.83203125 C-178.8234082 179.36733398 -178.8234082 179.36733398 -178.01757812 177.87304688 C-177.45490234 176.86306641 -176.89222656 175.85308594 -176.3125 174.8125 C-172.76302675 168.34092185 -169.41332553 161.99754326 -166.84838867 155.06518555 C-166 153 -166 153 -164 150 C-160.76770213 151.42537857 -158.5976741 153.18227947 -156.0625 155.625 C-142.89773123 167.50330928 -124.85028123 175.86450214 -108 181 C-107.36545898 181.19609863 -106.73091797 181.39219727 -106.07714844 181.59423828 C-88.792625 186.77789992 -70.7238383 187.41547089 -54 180 C-47.76522798 176.2130084 -43.33454298 171.517084 -40 165 C-39.60250194 162.08147685 -39.60250194 162.08147685 -39.75 159.0625 C-39.78867188 157.49435547 -39.78867188 157.49435547 -39.828125 155.89453125 C-40.00757142 152.87249036 -40.34279838 149.95740727 -41 147 C-41.66 147 -42.32 147 -43 147 C-43.350625 146.319375 -43.70125 145.63875 -44.0625 144.9375 C-54.20758255 129.55624581 -79.55300481 124.70147156 -96.25 120.125 C-120.98624047 113.2574385 -147.00042696 104.97012707 -161 81.8125 C-169.11023486 66.81438624 -170.75590097 48.13008359 -167.19921875 31.4140625 C-161.96134517 14.24247696 -149.68657336 1.21977561 -134.20141602 -7.37304688 C-128.96411508 -10.14941275 -123.64682085 -12.23536848 -118 -14 C-117.21625 -14.27457031 -116.4325 -14.54914063 -115.625 -14.83203125 C-78.80622302 -27.12514264 -33.38747531 -17.78620958 0 0 Z " fill="#020202" transform="translate(1199,122)"/>
<path d="M0 0 C0 20.13 0 40.26 0 61 C-7.92 61.99 -15.84 62.98 -24 64 C-38.74828739 69.89931496 -50.53523868 75.21537106 -61.875 86.4375 C-62.5055127 87.05794189 -63.13602539 87.67838379 -63.78564453 88.31762695 C-69.1890239 93.82256277 -73.24905221 99.70380325 -76.1171875 106.890625 C-77.78333557 110.87168676 -79.72349733 114.73447919 -81.59765625 118.62109375 C-85.2153166 127.33774055 -85.27702308 135.14248266 -85.1875 144.5 C-85.18685547 145.78003906 -85.18621094 147.06007812 -85.18554688 148.37890625 C-85.1813271 160.99407805 -85.1813271 160.99407805 -81.6875 173 C-81.2440625 174.0209375 -80.800625 175.041875 -80.34375 176.09375 C-79.18460773 178.60073212 -77.96599856 181.05258847 -76.6875 183.5 C-75 187 -75 187 -75 191 C-74.34 191 -73.68 191 -73 191 C-71.83891728 192.52068314 -70.74826529 194.09521634 -69.6875 195.6875 C-59.971981 209.32794787 -47.74619856 221.18578992 -31 225 C-31 225.66 -31 226.32 -31 227 C-29.43840941 227.48212214 -27.87568072 227.96055873 -26.3125 228.4375 C-25.44238281 228.70433594 -24.57226562 228.97117187 -23.67578125 229.24609375 C-15.92945049 231.42863658 -9.45818425 231.43612105 -1 232 C-1 252.13 -1 272.26 -1 293 C-30.68622449 291.9005102 -30.68622449 291.9005102 -40.125 288.125 C-42.6488926 287.13738985 -44.51768606 286.67224606 -47.1875 286.5 C-55.56176519 285.40173571 -66.09957392 281.15696634 -72 275 C-74.39270867 273.42584956 -76.61323483 272.14004695 -79.30859375 271.1640625 C-88.5368706 267.17273231 -96.78301767 258.8119476 -104 252 C-104.67546875 251.37738281 -105.3509375 250.75476563 -106.046875 250.11328125 C-120.45866168 236.36443676 -132.30672941 217.65213285 -139 199 C-139.28415771 198.22422607 -139.56831543 197.44845215 -139.86108398 196.64916992 C-140.78323534 194.10663448 -141.67465578 191.55470014 -142.5625 189 C-143.01786133 187.75283203 -143.01786133 187.75283203 -143.48242188 186.48046875 C-147.98592205 173.39186477 -148.41131655 159.53269044 -148.375 145.8125 C-148.37512085 145.10098785 -148.3752417 144.38947571 -148.37536621 143.65640259 C-148.335602 127.10778598 -146.01747233 111.4855232 -140 96 C-139.56945312 94.824375 -139.13890625 93.64875 -138.6953125 92.4375 C-127.83420601 63.417103 -127.83420601 63.417103 -119 59 C-118.47277344 58.00613281 -117.94554687 57.01226562 -117.40234375 55.98828125 C-114.62029117 50.95647292 -110.63717648 47.18842285 -106.5625 43.1875 C-105.75772217 42.39287354 -104.95294434 41.59824707 -104.1237793 40.77954102 C-91.83492703 28.80638365 -77.60869626 17.62659868 -61.24609375 11.8515625 C-58.90655357 11.02479156 -58.90655357 11.02479156 -56.50390625 9.625 C-51.34952981 7.23456455 -45.9713738 5.86776788 -40.5 4.375 C-39.38496094 4.06304687 -38.26992187 3.75109375 -37.12109375 3.4296875 C-24.08830018 -0.17413623 -14.60624852 0 0 0 Z " fill="#FBFCFE" transform="translate(279,83)"/>
<path d="M0 0 C20.20440659 -0.73516661 38.42942714 6.91941274 54.17578125 19.19921875 C54.78421875 19.65554687 55.39265625 20.111875 56.01953125 20.58203125 C66.60961938 29.00596499 72.69773728 40.12852301 78.17578125 52.19921875 C78.70429687 53.3078125 79.2328125 54.41640625 79.77734375 55.55859375 C83.17636166 64.40743367 83.44287147 72.92440442 83.30078125 82.32421875 C83.29175781 83.47148437 83.28273438 84.61875 83.2734375 85.80078125 C83.25010663 88.60048623 83.21737357 91.3997357 83.17578125 94.19921875 C82.51578125 94.19921875 81.85578125 94.19921875 81.17578125 94.19921875 C81.21832031 95.20726562 81.26085937 96.2153125 81.3046875 97.25390625 C80.70095337 115.73182976 67.68022827 133.40727934 54.9609375 145.78125 C40.1239294 158.66218691 21.71901389 164.56788745 2.36328125 164.51171875 C0.71489258 164.53588867 0.71489258 164.53588867 -0.96679688 164.56054688 C-21.78926639 164.57281704 -40.78972345 155.41641318 -55.57421875 141.01171875 C-64.28919457 132.19667402 -70.32442574 121.72893749 -74.82421875 110.19921875 C-75.21738281 109.27109375 -75.61054687 108.34296875 -76.015625 107.38671875 C-82.50638148 89.29401777 -80.81562977 66.2788491 -72.94140625 48.984375 C-62.67331013 27.63829142 -45.39353635 12.19868377 -23.12109375 3.9375 C-15.53404442 1.49880557 -7.91782863 0.55851903 0 0 Z " fill="#FDFDFD" transform="translate(866.82421875,143.80078125)"/>
<path d="M0 0 C43.56 0 87.12 0 132 0 C132 43.23 132 86.46 132 131 C111.87 131 91.74 131 71 131 C71 107.57 71 84.14 71 60 C47.57 60 24.14 60 0 60 C0 40.2 0 20.4 0 0 Z " fill="#FBFCFE" transform="translate(280,203)"/>
<path d="M0 0 C8.9925 -0.0825 17.985 -0.165 27.25 -0.25 C30.0437207 -0.28641602 32.83744141 -0.32283203 35.71582031 -0.36035156 C55.56729457 -0.51083608 77.89534651 -0.49936808 93.4375 13.75 C102.2610718 23.36237343 104.45140547 34.51631845 104.25 47.1796875 C103.57048047 57.56359532 100.51460935 66.75329183 93.6875 74.6875 C92.3571875 75.8321875 92.3571875 75.8321875 91 77 C90.43667969 77.49242187 89.87335938 77.98484375 89.29296875 78.4921875 C72.27794704 92.42301994 48.10898684 90.38514646 27.5625 90.1875 C18.466875 90.125625 9.37125 90.06375 0 90 C0 60.3 0 30.6 0 0 Z " fill="#FCFCFC" transform="translate(573,146)"/>
<path d="M0 0 C0.66 0.33 1.32 0.66 2 1 C-6.91 9.91 -15.82 18.82 -25 28 C-25.66 27.67 -26.32 27.34 -27 27 C-18.37875421 17.53860282 -9.55367699 8.52213379 0 0 Z " fill="#2B48FF" transform="translate(136,66)"/>
<path d="M0 0 C0.66 0.33 1.32 0.66 2 1 C-4.6 7.6 -11.2 14.2 -18 21 C-18.66 20.67 -19.32 20.34 -20 20 C-7.23404255 5.85106383 -7.23404255 5.85106383 0 0 Z " fill="#292929" transform="translate(786,130)"/>
<path d="M0 0 C0.66 0.33 1.32 0.66 2 1 C-0.29108412 3.45887681 -2.58296701 5.91700768 -4.875 8.375 C-5.85146484 9.42300781 -5.85146484 9.42300781 -6.84765625 10.4921875 C-7.47285156 11.1625 -8.09804687 11.8328125 -8.7421875 12.5234375 C-9.60626221 13.450354 -9.60626221 13.450354 -10.48779297 14.39599609 C-11.63848669 15.61654142 -12.81386617 16.81386617 -14 18 C-14.99 17.67 -15.98 17.34 -17 17 C-11.39 11.39 -5.78 5.78 0 0 Z " fill="#C7CFFD" transform="translate(182,117)"/>
<path d="M0 0 C0.66 0.33 1.32 0.66 2 1 C-1.63 4.96 -5.26 8.92 -9 13 C-9.99 12.67 -10.98 12.34 -12 12 C-8.04 8.04 -4.08 4.08 0 0 Z " fill="#3F59FD" transform="translate(225,161)"/>
<path d="M0 0 C-2.96178773 1.67110042 -5.37071192 2.32682752 -8.75 2.625 C-9.54921875 2.69976562 -10.3484375 2.77453125 -11.171875 2.8515625 C-11.77515625 2.90054688 -12.3784375 2.94953125 -13 3 C-12 1 -12 1 -10.4375 0.375 C-6.93601819 -0.16368951 -3.54193167 -0.05903219 0 0 Z " fill="#5C72FD" transform="translate(263,146)"/>
<path d="M0 0 C-1.24176695 0.70226141 -2.49385599 1.38629109 -3.75 2.0625 C-4.79414063 2.63677734 -4.79414063 2.63677734 -5.859375 3.22265625 C-8.36140628 4.1312406 -9.5332355 3.88336837 -12 3 C-10.75823305 2.29773859 -9.50614401 1.61370891 -8.25 0.9375 C-7.20585937 0.36322266 -7.20585937 0.36322266 -6.140625 -0.22265625 C-3.63859372 -1.1312406 -2.4667645 -0.88336837 0 0 Z " fill="#9DAAFD" transform="translate(230,92)"/>
</svg>
