<?xml version="1.0" encoding="UTF-8"?>
<svg version="1.1" xmlns="http://www.w3.org/2000/svg" width="1145" height="885">
<path d="M0 0 C377.85 0 755.7 0 1145 0 C1145 292.05 1145 584.1 1145 885 C767.15 885 389.3 885 0 885 C0 592.95 0 300.9 0 0 Z " fill="#0427FE" transform="translate(0,0)"/>
<path d="M0 0 C377.85 0 755.7 0 1145 0 C1145 292.05 1145 584.1 1145 885 C767.15 885 389.3 885 0 885 C0 592.95 0 300.9 0 0 Z M514 12 C512.82477783 12.12028564 511.64955566 12.24057129 510.4387207 12.36450195 C436.188587 20.27136911 361.73898842 48.46747473 302.72167969 94.65917969 C301.03814359 95.9702943 299.33926955 97.25797158 297.6328125 98.5390625 C289.46074885 104.69393275 281.67434427 111.23926814 274 118 C273.071875 118.8146875 272.14375 119.629375 271.1875 120.46875 C264.35679842 126.6008571 257.82994252 133.03818934 251.3125 139.5 C250.43327881 140.36616943 249.55405762 141.23233887 248.64819336 142.12475586 C243.41668747 147.34937754 238.59476646 152.7494382 233.99072266 158.53564453 C232.08720369 160.8920488 230.10732446 163.14099598 228.0625 165.375 C208.9196703 186.77435187 193.78628616 211.7968639 180.13037109 236.93603516 C179.11196747 238.7955566 178.07132013 240.63970494 177.01953125 242.48046875 C166.55972395 261.22185543 158.57523722 281.60303441 152 302 C151.68611328 302.95455078 151.37222656 303.90910156 151.04882812 304.89257812 C142.58183955 330.75567968 136.48258315 357.0099806 133 384 C132.85046875 385.06863281 132.7009375 386.13726562 132.546875 387.23828125 C127.46942879 424.13730846 128.3401706 462.23368651 134 499 C134.21629513 500.4392435 134.43227255 501.87853478 134.64794922 503.31787109 C135.65401792 509.98090309 136.71124858 516.63590423 137.8515625 523.27734375 C138.02510254 524.29046631 138.19864258 525.30358887 138.37744141 526.34741211 C138.96657762 528.85759444 139.81670212 530.73007306 141 533 C141.46966765 535.52303171 141.87715666 538.02571452 142.25 540.5625 C143.70158283 549.45667431 146.22701644 557.79562417 149.10253906 566.32080078 C150.08648014 569.25817004 151.04046594 572.20438393 151.9921875 575.15234375 C152.68159463 577.26845638 153.37169051 579.38434476 154.0625 581.5 C154.53659302 582.96771851 154.53659302 582.96771851 155.02026367 584.46508789 C156.96132817 590.33206853 159.22399671 595.92326163 161.84155273 601.52099609 C163.31165691 604.66692609 164.64863495 607.86402456 166 611.0625 C177.11568585 636.65699824 190.535493 661.43509797 207 684 C207.62648438 684.886875 208.25296875 685.77375 208.8984375 686.6875 C214.17630542 694.09805741 219.85097599 701.17630452 225.57763672 708.24121094 C226.84122846 709.80367487 228.09514982 711.37394836 229.34765625 712.9453125 C234.73067426 719.64721877 240.46185014 725.95690386 246.33935547 732.22167969 C248.10250685 734.10977064 249.8509813 736.01072461 251.59765625 737.9140625 C259.42080621 746.46875446 259.42080621 746.46875446 267.96875 754.28125 C270.08052473 756.06813631 272.09582327 757.942892 274.11279297 759.83544922 C281.07155951 766.34482819 288.42735017 772.22469812 296 778 C296.98742187 778.76054688 297.97484375 779.52109375 298.9921875 780.3046875 C362.99022173 829.0403179 440.60805056 859.47709606 520.79394531 865.69042969 C524 866 524 866 526.74633789 866.5234375 C531.40823597 867.20626372 536.02447819 867.18236597 540.73046875 867.203125 C541.7816539 867.21009399 542.83283905 867.21706299 543.9158783 867.22424316 C547.33979253 867.24171652 550.76354287 867.24797593 554.1875 867.25 C555.35593445 867.25100708 556.5243689 867.25201416 557.72821045 867.25305176 C598.15012433 867.22950434 638.36502395 863.5358167 677 851 C678.99938563 850.39380329 680.99941229 849.78971773 683 849.1875 C688.89277167 847.36661922 694.76360422 845.48163109 700.625 843.5625 C701.48351562 843.28623779 702.34203125 843.00997559 703.2265625 842.7253418 C708.69690265 840.91839922 713.89535866 838.77029566 719.11572266 836.33666992 C722.13904458 834.93556212 725.18516457 833.59930451 728.2421875 832.2734375 C769.15394331 814.44278171 808.18118845 791.53630022 841 761 C842.28717339 759.86986176 843.57875606 758.74472292 844.875 757.625 C855.13735317 748.67140847 865.23529936 739.51715074 874.109375 729.1640625 C875.44607473 727.63403843 876.81406439 726.1310873 878.203125 724.6484375 C885.196241 717.18159429 891.32728117 709.20137462 897.46435547 701.02783203 C898.83352761 699.21982824 900.22231353 697.43128576 901.62890625 695.65234375 C912.21558975 682.21082425 921.46051314 667.81468763 930 653 C930.39396973 652.3203418 930.78793945 651.64068359 931.19384766 650.94042969 C940.79447075 634.29630546 949.01193789 617.04887766 956.10913086 599.19775391 C957.18569522 596.54189411 958.31080462 593.90783431 959.4296875 591.26953125 C972.05551947 560.98317169 979.58639487 528.43058883 984 496 C984.24556641 494.25033936 984.24556641 494.25033936 984.49609375 492.46533203 C990.93776827 444.4389219 988.63109927 394.23643453 978 347 C977.78118164 346.02272949 977.56236328 345.04545898 977.33691406 344.03857422 C963.11003337 281.69014714 935.14167531 223.18886331 895.5625 172.9375 C895.10004883 172.34952637 894.63759766 171.76155273 894.16113281 171.15576172 C890.62058033 166.69544321 886.90696788 162.42618 883.05078125 158.234375 C881.13614309 156.14833114 879.28177042 154.02317954 877.4375 151.875 C874.41320615 148.39566194 871.18913389 145.16751258 867.90234375 141.9375 C866.16449527 140.16753522 864.57601713 138.35093001 863 136.4375 C860.37034403 133.3099625 857.49127962 130.70631308 854.37890625 128.06640625 C852.03417997 126.02968999 849.77089458 123.91952253 847.51147461 121.7890625 C840.8540453 115.52792057 833.88015475 109.85224109 826.64160156 104.28173828 C823.32453085 101.6918184 820.11098055 98.97413596 816.890625 96.265625 C812.71850737 92.99558686 808.36494519 90.00567536 804 87 C802.794646 86.16831299 802.794646 86.16831299 801.56494141 85.31982422 C783.24567789 72.75495148 764.31061838 61.86666105 744.34228516 52.14868164 C740.99577822 50.50751892 737.67205372 48.82163549 734.34838867 47.13476562 C730.32431696 45.19029267 726.16633082 43.60985934 722 42 C720.51382825 41.39835588 719.02816537 40.79545352 717.54296875 40.19140625 C702.44424992 34.14772851 686.93527167 28.1812135 671.07324219 24.49365234 C668.57414543 23.89860128 666.08907113 23.25503966 663.6015625 22.61328125 C628.75489209 13.75539495 593.69040923 9.7551103 557.8125 9.6875 C556.88589569 9.68382416 555.95929138 9.68014832 555.00460815 9.67636108 C541.23679956 9.6477594 527.68673999 10.54268679 514 12 Z " fill="#FEFEFF" transform="translate(0,0)"/>
<path d="M0 0 C1.08117883 0.00068513 2.16235765 0.00137026 3.27629948 0.00207615 C4.10067225 0.00295703 4.92504503 0.00383791 5.7743988 0.00474548 C5.79772797 16.02468086 5.81537806 32.04461074 5.82621098 48.06455898 C5.8313739 55.50239059 5.83841652 62.94021166 5.84983826 70.3780365 C5.85978522 76.8585589 5.86625226 83.33907368 5.8684873 89.8196035 C5.86979439 93.25305091 5.87288011 96.68647649 5.88012886 100.11991692 C5.88814296 103.94668369 5.88838993 107.77342884 5.88792419 111.60020447 C5.89151947 112.74675003 5.89511475 113.89329559 5.89881897 115.07458496 C5.89744431 116.11090057 5.89606964 117.14721619 5.89465332 118.2149353 C5.89603601 119.57411906 5.89603601 119.57411906 5.89744663 120.96076107 C5.7743988 123.00474548 5.7743988 123.00474548 4.7743988 124.00474548 C3.32855871 124.12609311 1.87732887 124.18440736 0.42674255 124.21568298 C-0.48067688 124.2417865 -1.38809631 124.26789001 -2.32301331 124.29478455 C-3.30149231 124.32282166 -4.27997131 124.35085876 -5.2881012 124.37974548 C-19.21740356 124.91475298 -31.72857864 127.23741399 -44.8818512 131.87974548 C-47.65817467 132.81383563 -50.29423857 133.51705265 -53.1631012 134.06724548 C-56.67327553 134.7809593 -59.60281683 136.02406075 -62.77638245 137.72349548 C-66.14764631 139.48709125 -69.58990242 141.08552111 -73.0381012 142.69224548 C-73.69697327 143.00186218 -74.35584534 143.31147888 -75.03468323 143.63047791 C-77.74196827 144.89427227 -80.38829879 146.05897801 -83.2256012 147.00474548 C-84.3393512 148.18037048 -84.3393512 148.18037048 -85.4756012 149.37974548 C-88.08459308 151.87014683 -89.89001252 152.68498999 -93.1631012 153.96177673 C-98.07299848 156.44462252 -102.11818169 160.39026876 -106.2256012 164.00474548 C-106.74460999 164.46059021 -107.26361877 164.91643494 -107.7983551 165.38609314 C-129.05698106 183.29931146 -129.05698106 183.29931146 -140.8115387 207.08287048 C-141.45074418 210.04974876 -143.23327171 211.77802429 -145.2256012 214.00474548 C-146.22694977 215.68442697 -147.22464583 217.36725677 -148.1631012 219.08287048 C-148.88140503 220.38215535 -149.63272447 221.66364236 -150.4131012 222.92662048 C-153.9454035 228.79907306 -155.99983874 234.9429695 -158.0146637 241.45396423 C-159.2256012 245.00474548 -159.2256012 245.00474548 -160.7412262 247.91490173 C-162.59905967 251.78212879 -163.46789955 255.57427048 -164.3506012 259.75474548 C-164.51946838 260.50240173 -164.68833557 261.25005798 -164.86231995 262.02037048 C-167.45563855 273.94555207 -167.50451877 285.98084299 -167.7881012 298.12974548 C-167.83138001 299.86673318 -167.87499698 301.60371248 -167.91896057 303.34068298 C-168.02507464 307.56195047 -168.12660648 311.78330528 -168.2256012 316.00474548 C-167.5656012 316.00474548 -166.9056012 316.00474548 -166.2256012 316.00474548 C-166.11603088 317.02052673 -166.00646057 318.03630798 -165.89356995 319.08287048 C-165.04803226 326.55771547 -163.98576058 333.7705838 -162.0146637 341.04771423 C-160.85422321 345.3964937 -159.92567616 349.7942304 -158.97169495 354.19224548 C-158.30134885 356.71920459 -157.38919026 358.68755524 -156.2256012 361.00474548 C-156.2256012 361.99474548 -156.2256012 362.98474548 -156.2256012 364.00474548 C-155.5656012 364.00474548 -154.9056012 364.00474548 -154.2256012 364.00474548 C-151.44742379 367.79316922 -149.96045457 372.10580053 -148.2568512 376.44224548 C-145.4406539 383.46824769 -145.4406539 383.46824769 -140.8506012 389.37974548 C-138.40587366 391.82447302 -137.04941615 393.84883745 -135.3506012 396.81724548 C-132.380704 401.95686032 -128.70001166 408.26754025 -123.2256012 411.00474548 C-122.7718512 411.76787048 -122.3181012 412.53099548 -121.8506012 413.31724548 C-119.73207418 416.82096324 -117.57343101 419.25595114 -113.9756012 421.25474548 C-108.87233787 424.50227669 -104.73742649 429.0609701 -101.0381012 433.81724548 C-99.02280634 436.2494979 -96.93066006 437.42679448 -94.2256012 439.00474548 C-94.2256012 439.66474548 -94.2256012 440.32474548 -94.2256012 441.00474548 C-93.23431213 441.24193298 -92.24302307 441.47912048 -91.22169495 441.72349548 C-86.82492436 442.98193121 -83.1647765 445.12319618 -79.2881012 447.50474548 C-78.60425354 447.90822205 -77.92040588 448.31169861 -77.21583557 448.72740173 C-75.51342934 449.75802928 -73.86371666 450.87471989 -72.2256012 452.00474548 C-72.2256012 452.66474548 -72.2256012 453.32474548 -72.2256012 454.00474548 C-70.4002887 453.91193298 -70.4002887 453.91193298 -68.5381012 453.81724548 C-64.66040771 453.81035793 -62.30683192 454.50124552 -59.2256012 457.00474548 C-59.2256012 457.66474548 -59.2256012 458.32474548 -59.2256012 459.00474548 C-58.46376526 459.1865033 -57.70192932 459.36826111 -56.91700745 459.55552673 C-47.47396372 461.85439506 -47.47396372 461.85439506 -43.0381012 463.50474548 C-36.63440883 465.73262388 -29.87284919 466.57343072 -23.20411682 467.6683197 C-20.6583351 468.10120312 -18.13160913 468.61823939 -15.6006012 469.12974548 C-8.86885263 470.22561153 -2.03085888 470.55106164 4.7743988 471.00474548 C4.7743988 511.59474548 4.7743988 552.18474548 4.7743988 594.00474548 C-45.83684637 594.00474548 -45.83684637 594.00474548 -69.2177887 585.93052673 C-72.74098509 584.84611434 -76.28505076 584.23112831 -79.9131012 583.62974548 C-86.0291771 582.58519214 -91.83890404 581.027648 -97.7256012 579.06724548 C-98.45480774 578.82635193 -99.18401428 578.58545837 -99.93531799 578.33726501 C-106.81529687 575.96811544 -112.99959376 572.74426568 -119.2256012 569.00474548 C-121.78959031 567.67372076 -124.38271205 566.40334387 -126.9756012 565.12974548 C-134.94687004 561.1757001 -142.74678248 557.14029514 -150.1084137 552.11802673 C-152.32479738 550.84728785 -152.32479738 550.84728785 -155.41700745 550.19615173 C-160.18685183 548.70404657 -163.88906052 546.36458582 -168.0381012 543.62974548 C-168.80058167 543.14763611 -169.56306213 542.66552673 -170.34864807 542.16880798 C-171.44209534 541.45724548 -171.44209534 541.45724548 -172.55763245 540.73130798 C-173.21481262 540.3041449 -173.8719928 539.87698181 -174.54908752 539.43687439 C-176.47105943 537.79506761 -177.19052178 536.28679452 -178.2256012 534.00474548 C-179.98640413 532.14210033 -179.98640413 532.14210033 -182.0381012 530.44224548 C-182.70454651 529.86345642 -183.37099182 529.28466736 -184.05763245 528.68833923 C-186.17581924 526.95707221 -186.17581924 526.95707221 -188.54078674 525.70762634 C-191.56770217 523.78776319 -193.83196117 521.62424122 -196.3506012 519.07505798 C-196.81998108 518.60284821 -197.28936096 518.13063843 -197.77296448 517.64411926 C-199.26197793 516.14399516 -200.74387715 514.63706646 -202.2256012 513.12974548 C-203.21992445 512.12537529 -204.21471219 511.12146472 -205.2099762 510.11802673 C-207.04882785 508.26293148 -208.88434778 506.40475991 -210.7177887 504.54429626 C-213.20999614 502.02054803 -215.71519167 499.51037631 -218.2256012 497.00474548 C-222.55893453 492.67141215 -226.89226786 488.33807882 -231.2256012 484.00474548 C-232.0299762 483.32412048 -232.0299762 483.32412048 -232.8506012 482.62974548 C-234.2256012 481.00474548 -234.2256012 481.00474548 -235.4912262 477.85240173 C-237.21852009 473.72602949 -239.66317013 470.36821708 -242.3506012 466.81724548 C-247.38867323 460.14501127 -247.38867323 460.14501127 -248.2256012 456.00474548 C-248.8856012 456.00474548 -249.5456012 456.00474548 -250.2256012 456.00474548 C-252.25871381 452.355569 -254.24821707 448.68439943 -256.2256012 445.00474548 C-256.69836487 444.13849548 -256.69836487 444.13849548 -257.18067932 443.25474548 C-260.99145482 436.23368031 -264.08543337 430.13447956 -264.2256012 422.00474548 C-265.2156012 422.00474548 -266.2056012 422.00474548 -267.2256012 422.00474548 C-267.62392151 421.02892517 -268.02224182 420.05310486 -268.43263245 419.04771423 C-268.96739983 417.76239613 -269.50257767 416.47724873 -270.0381012 415.19224548 C-270.29913635 414.54964783 -270.56017151 413.90705017 -270.82911682 413.24497986 C-272.32134607 409.58092931 -272.32134607 409.58092931 -274.76856995 406.53599548 C-277.19037335 403.99082944 -277.78270492 400.62303531 -278.7256012 397.31724548 C-279.15872819 395.85968744 -279.59360211 394.40264728 -280.0302887 392.94615173 C-280.23621643 392.25537537 -280.44214417 391.564599 -280.65431213 390.85289001 C-281.29525395 388.77941586 -282.03880061 386.7671564 -282.8506012 384.75474548 C-285.7063547 376.96632684 -287.46028392 369.14412489 -288.0146637 360.86802673 C-288.03112266 358.99153168 -288.03112266 358.99153168 -289.2256012 358.00474548 C-289.43328349 356.53077809 -289.59276137 355.04983288 -289.7256012 353.56724548 C-290.01707064 350.15977044 -290.01707064 350.15977044 -291.2256012 347.00474548 C-291.60594281 344.14921198 -291.93724322 341.30734796 -292.2256012 338.44224548 C-292.35587708 337.15132996 -292.35587708 337.15132996 -292.48878479 335.83433533 C-297.41284193 285.62373393 -297.41284193 285.62373393 -292.7099762 262.46568298 C-292.12766435 259.50716313 -292.03598109 256.64205835 -291.9131012 253.62974548 C-291.47996634 246.95807142 -290.04530794 240.94440006 -288.19825745 234.53599548 C-287.34962358 231.45501147 -286.72819481 228.46864328 -286.2256012 225.31724548 C-285.39603109 220.35450748 -283.89354989 215.79199233 -282.22950745 211.05162048 C-281.22239875 207.99502598 -280.45337031 204.95102723 -279.7256012 201.81724548 C-278.65845214 197.39374051 -277.27521432 193.45278534 -275.3271637 189.34849548 C-274.03600658 186.60135268 -272.88095563 183.81161884 -271.7256012 181.00474548 C-262.83189187 159.61103616 -262.83189187 159.61103616 -258.2256012 155.00474548 C-257.53519545 153.3477717 -256.8725377 151.67916938 -256.2256012 150.00474548 C-253.82916207 144.82014161 -250.83728362 140.17133476 -247.6631012 135.44224548 C-247.13007385 134.64721619 -246.59704651 133.85218689 -246.04786682 133.0330658 C-238.32511451 121.61462212 -229.72602718 111.04676363 -220.66896057 100.67173767 C-219.66143097 99.50810233 -218.66344331 98.33616652 -217.67286682 97.1580658 C-215.02237122 94.01039442 -212.4240268 91.11679306 -209.2256012 88.50474548 C-206.68574956 86.35232885 -204.49084694 84.2284246 -202.4131012 81.62974548 C-198.77476386 77.24433622 -194.37533391 73.88367596 -189.92237854 70.36021423 C-188.03583934 68.85315443 -186.17087421 67.32175839 -184.30763245 65.78599548 C-177.13865465 59.88578059 -169.96346504 54.15340104 -162.2256012 49.00474548 C-161.1943512 48.28287048 -160.1631012 47.56099548 -159.1006012 46.81724548 C-154.9263787 44.18567043 -150.53377559 42.05541985 -146.0459137 40.01255798 C-144.05464297 39.13440174 -144.05464297 39.13440174 -143.2256012 37.00474548 C-136.99030708 33.00474548 -136.99030708 33.00474548 -132.2256012 33.00474548 C-132.2256012 32.34474548 -132.2256012 31.68474548 -132.2256012 31.00474548 C-131.62231995 30.73919861 -131.0190387 30.47365173 -130.3974762 30.20005798 C-129.59825745 29.84685486 -128.7990387 29.49365173 -127.9756012 29.12974548 C-127.18669495 28.78169861 -126.3977887 28.43365173 -125.5849762 28.07505798 C-124.80638245 27.72185486 -124.0277887 27.36865173 -123.2256012 27.00474548 C-122.48825745 26.67216736 -121.7509137 26.33958923 -120.9912262 25.99693298 C-119.05166487 25.12408734 -119.05166487 25.12408734 -118.2256012 23.00474548 C-116.23442712 22.31216319 -114.2334876 21.64726913 -112.2256012 21.00474548 C-111.2356012 20.34474548 -110.2456012 19.68474548 -109.2256012 19.00474548 C-107.13614319 18.38985617 -105.02818453 17.83719367 -102.9131012 17.31724548 C-97.34391644 15.91667823 -91.91609786 14.26163324 -86.47511292 12.4261322 C-70.32278587 7.01333853 -53.86406223 4.42326043 -36.9912262 2.39927673 C-34.14554805 2.07754999 -34.14554805 2.07754999 -31.2256012 1.00474548 C-29.44878503 0.85553905 -27.66751595 0.75671236 -25.88575745 0.68833923 C-24.28957581 0.62549744 -24.28957581 0.62549744 -22.66114807 0.56138611 C-21.5480426 0.5220697 -20.43493713 0.4827533 -19.2881012 0.44224548 C-18.20980042 0.39906189 -17.13149963 0.3558783 -16.02052307 0.31138611 C-10.67692173 0.10968037 -5.34757441 -0.00439471 0 0 Z " fill="#FEFEFE" transform="translate(568.2256011962891,141.99525451660156)"/>
<path d="M0 0 C88.44 0 176.88 0 268 0 C268.020625 43.869375 268.04125 87.73875 268.0625 132.9375 C268.071604 146.81546631 268.08070801 160.69343262 268.09008789 174.99194336 C268.09460449 191.87219238 268.09460449 191.87219238 268.09544373 199.76173401 C268.09637952 205.30002767 268.1000614 210.83831135 268.10557556 216.37660217 C268.11191768 222.7558458 268.11484142 229.13507979 268.11344495 235.51432661 C268.11283961 238.78119639 268.11438266 242.04804007 268.11921513 245.31490695 C268.12413897 248.80374159 268.12300847 252.29252109 268.12025452 255.78135681 C268.12316718 256.8131434 268.12607985 257.84492998 268.12908077 258.90798283 C268.1270899 259.83684992 268.12509903 260.76571701 268.12304783 261.72273159 C268.12342755 262.53039673 268.12380727 263.33806188 268.1241985 264.17020172 C268 266 268 266 267 267 C265.42077271 267.09811135 263.83715467 267.12631892 262.25488281 267.12698364 C261.22842651 267.12980347 260.20197021 267.13262329 259.14440918 267.13552856 C257.44097351 267.13249222 257.44097351 267.13249222 255.703125 267.12939453 C254.51464966 267.13114685 253.32617432 267.13289917 252.10168457 267.13470459 C248.83317224 267.1383627 245.56470011 267.13748972 242.29618835 267.1343255 C238.88267937 267.13180147 235.46917315 267.13413956 232.05566406 267.13571167 C226.32226069 267.13753324 220.58887017 267.13512739 214.85546875 267.13037109 C208.21794224 267.12492849 201.58044645 267.12669116 194.94292068 267.1321975 C189.25375734 267.13672899 183.56460326 267.137379 177.87543869 267.13475883 C174.4733098 267.13319626 171.07119536 267.13300175 167.66906738 267.13629532 C163.87831512 267.13882009 160.08762277 267.13498371 156.296875 267.12939453 C154.59343933 267.13243088 154.59343933 267.13243088 152.85559082 267.13552856 C151.82913452 267.13270874 150.80267822 267.12988892 149.74511719 267.12698364 C148.84766785 267.12660662 147.95021851 267.12622959 147.02557373 267.12584114 C145 267 145 267 144 266 C143.90351752 264.15238732 143.87812682 262.3010419 143.87974548 260.45091248 C143.87767924 258.64779051 143.87767924 258.64779051 143.87557125 256.80824184 C143.87911851 255.45866816 143.88275641 254.10909471 143.88647461 252.75952148 C143.88678072 251.32763961 143.88664783 249.89575758 143.88610935 248.46387577 C143.88588285 244.61646079 143.89169426 240.76907668 143.89871979 236.92166901 C143.9043991 233.31630858 143.90468205 229.7109558 143.90539551 226.10559082 C143.91065059 215.54955643 143.92461163 204.99352783 143.9375 194.4375 C143.958125 170.863125 143.97875 147.28875 144 123 C96.48 123 48.96 123 0 123 C0 82.41 0 41.82 0 0 Z " fill="#FEFEFE" transform="translate(577,385)"/>
<path d="M0 0 C88.44 0 176.88 0 268 0 C268.020625 43.869375 268.04125 87.73875 268.0625 132.9375 C268.071604 146.81546631 268.08070801 160.69343262 268.09008789 174.99194336 C268.09460449 191.87219238 268.09460449 191.87219238 268.09544373 199.76173401 C268.09637952 205.30002767 268.1000614 210.83831135 268.10557556 216.37660217 C268.11191768 222.7558458 268.11484142 229.13507979 268.11344495 235.51432661 C268.11283961 238.78119639 268.11438266 242.04804007 268.11921513 245.31490695 C268.12413897 248.80374159 268.12300847 252.29252109 268.12025452 255.78135681 C268.12316718 256.8131434 268.12607985 257.84492998 268.12908077 258.90798283 C268.1270899 259.83684992 268.12509903 260.76571701 268.12304783 261.72273159 C268.12342755 262.53039673 268.12380727 263.33806188 268.1241985 264.17020172 C268 266 268 266 267 267 C265.42077271 267.09811135 263.83715467 267.12631892 262.25488281 267.12698364 C261.22842651 267.12980347 260.20197021 267.13262329 259.14440918 267.13552856 C257.44097351 267.13249222 257.44097351 267.13249222 255.703125 267.12939453 C254.51464966 267.13114685 253.32617432 267.13289917 252.10168457 267.13470459 C248.83317224 267.1383627 245.56470011 267.13748972 242.29618835 267.1343255 C238.88267937 267.13180147 235.46917315 267.13413956 232.05566406 267.13571167 C226.32226069 267.13753324 220.58887017 267.13512739 214.85546875 267.13037109 C208.21794224 267.12492849 201.58044645 267.12669116 194.94292068 267.1321975 C189.25375734 267.13672899 183.56460326 267.137379 177.87543869 267.13475883 C174.4733098 267.13319626 171.07119536 267.13300175 167.66906738 267.13629532 C163.87831512 267.13882009 160.08762277 267.13498371 156.296875 267.12939453 C154.59343933 267.13243088 154.59343933 267.13243088 152.85559082 267.13552856 C151.82913452 267.13270874 150.80267822 267.12988892 149.74511719 267.12698364 C148.84766785 267.12660662 147.95021851 267.12622959 147.02557373 267.12584114 C145 267 145 267 144 266 C143.90351752 264.15238732 143.87812682 262.3010419 143.87974548 260.45091248 C143.87767924 258.64779051 143.87767924 258.64779051 143.87557125 256.80824184 C143.87911851 255.45866816 143.88275641 254.10909471 143.88647461 252.75952148 C143.88678072 251.32763961 143.88664783 249.89575758 143.88610935 248.46387577 C143.88588285 244.61646079 143.89169426 240.76907668 143.89871979 236.92166901 C143.9043991 233.31630858 143.90468205 229.7109558 143.90539551 226.10559082 C143.91065059 215.54955643 143.92461163 204.99352783 143.9375 194.4375 C143.958125 170.863125 143.97875 147.28875 144 123 C96.48 123 48.96 123 0 123 C0 82.41 0 41.82 0 0 Z M2 2 C2 40.94 2 79.88 2 120 C72.785 120.495 72.785 120.495 145 121 C145.33 168.52 145.66 216.04 146 265 C185.6 265 225.2 265 266 265 C266 178.21 266 91.42 266 2 C178.88 2 91.76 2 2 2 Z " fill="#B4BEFE" transform="translate(577,385)"/>
<path d="M0 0 C34.25198705 -0.02286534 68.50397236 -0.0404977 102.75596538 -0.05106533 C106.79539946 -0.05231611 110.83483352 -0.05361042 114.87426758 -0.05493164 C115.67848064 -0.05519395 116.4826937 -0.05545626 117.31127686 -0.05572652 C130.35035422 -0.06008342 143.3894272 -0.06797108 156.42850196 -0.0771528 C169.79768322 -0.08648878 183.16686218 -0.09205549 196.53604656 -0.09408849 C204.79228882 -0.09546384 213.04851868 -0.09981504 221.30475713 -0.10791647 C226.95856363 -0.11318324 232.61236368 -0.11480445 238.26617246 -0.11350138 C241.53306097 -0.11285789 244.799923 -0.11441517 248.0668087 -0.11920547 C251.60037861 -0.1241354 255.13389421 -0.12300089 258.66746521 -0.12025452 C259.71121746 -0.12316736 260.75496971 -0.1260802 261.83035082 -0.12908131 C262.76937527 -0.12709026 263.70839973 -0.12509921 264.67587948 -0.12304783 C265.49265791 -0.12342755 266.30943634 -0.12380727 267.15096563 -0.1241985 C269 0 269 0 270 1 C270.09751277 2.43253445 270.12555448 3.8698604 270.12584114 5.30570984 C270.12975276 6.70809639 270.12975276 6.70809639 270.13374341 8.13881397 C270.13039732 9.69758275 270.13039732 9.69758275 270.12698364 11.2878418 C270.12854363 12.38238269 270.13010362 13.47692358 270.13171089 14.60463238 C270.13572605 18.3028412 270.13252925 22.00100957 270.12939453 25.69921875 C270.13074834 28.33810549 270.13249174 30.97698936 270.13470459 33.61587524 C270.13916297 40.05773415 270.13818552 46.49958145 270.13529195 52.94144082 C270.13303818 58.17453371 270.13272528 63.40762332 270.13381577 68.64071655 C270.133969 69.38408915 270.13412223 70.12746175 270.13428011 70.89336079 C270.13459982 72.40326953 270.13492403 73.91317827 270.1352527 75.423087 C270.13810769 89.59829188 270.13482017 103.77349029 270.12945233 117.94869411 C270.12498428 130.124979 270.1257602 142.30125435 270.13037109 154.47753906 C270.13571652 168.60027759 270.137833 182.72301046 270.13475883 196.84574986 C270.13444026 198.35026105 270.13412589 199.85477225 270.13381577 201.35928345 C270.13366149 202.0996293 270.13350721 202.83997515 270.13334826 203.60275573 C270.13248301 208.83261449 270.13394616 214.06246967 270.13629532 219.29232788 C270.13909317 225.66139513 270.13835538 232.03045004 270.13301457 238.39951587 C270.13037735 241.65223284 270.12990662 244.90492484 270.13266373 248.15764236 C270.13537212 251.67583525 270.13199793 255.19396913 270.12698364 258.7121582 C270.12921436 259.75133739 270.13144509 260.79051657 270.13374341 261.86118603 C270.13113566 262.79611039 270.12852791 263.73103476 270.12584114 264.69429016 C270.12567879 265.50748876 270.12551644 266.32068735 270.12534916 267.15852833 C270 269 270 269 269 270 C267.3804366 270.09603022 265.75666917 270.12187855 264.13426208 270.12025452 C263.08111816 270.12162918 262.02797424 270.12300385 260.94291687 270.12442017 C259.19504631 270.11902725 259.19504631 270.11902725 257.41186523 270.11352539 C255.58285172 270.11374443 255.58285172 270.11374443 253.71688843 270.1139679 C250.36372489 270.11338893 247.01062226 270.10835968 243.65746951 270.10139394 C240.15674438 270.09515983 236.65601852 270.09455656 233.1552887 270.09336853 C226.52190344 270.09025538 219.88853459 270.08204222 213.25515658 270.07201904 C205.70509793 270.06085739 198.15503851 270.05534732 190.60497367 270.05032361 C175.06997294 270.03985959 159.53498858 270.02226047 144 270 C144.33 269.01 144.66 268.02 145 267 C185.26 267 225.52 267 267 267 C267.33 179.22 267.66 91.44 268 1 C179.56 1 91.12 1 0 1 C0 0.67 0 0.34 0 0 Z " fill="#3853F9" transform="translate(577,384)"/>
<path d="M0 0 C1.08117883 0.00068513 2.16235765 0.00137026 3.27629948 0.00207615 C4.10067225 0.00295703 4.92504503 0.00383791 5.7743988 0.00474548 C5.79772797 16.02468086 5.81537806 32.04461074 5.82621098 48.06455898 C5.8313739 55.50239059 5.83841652 62.94021166 5.84983826 70.3780365 C5.85978522 76.8585589 5.86625226 83.33907368 5.8684873 89.8196035 C5.86979439 93.25305091 5.87288011 96.68647649 5.88012886 100.11991692 C5.88814296 103.94668369 5.88838993 107.77342884 5.88792419 111.60020447 C5.89151947 112.74675003 5.89511475 113.89329559 5.89881897 115.07458496 C5.89744431 116.11090057 5.89606964 117.14721619 5.89465332 118.2149353 C5.89603601 119.57411906 5.89603601 119.57411906 5.89744663 120.96076107 C5.7743988 123.00474548 5.7743988 123.00474548 4.7743988 124.00474548 C2.24390478 124.07788115 -0.25864956 124.09722075 -2.7881012 124.06724548 C-3.85447815 124.06047791 -3.85447815 124.06047791 -4.94239807 124.05357361 C-6.70350133 124.04175412 -8.46456156 124.02381811 -10.2256012 124.00474548 C-10.2256012 123.67474548 -10.2256012 123.34474548 -10.2256012 123.00474548 C-5.6056012 122.67474548 -0.9856012 122.34474548 3.7743988 122.00474548 C3.7743988 82.40474548 3.7743988 42.80474548 3.7743988 2.00474548 C-11.37151775 1.98196768 -11.37151775 1.98196768 -26.2256012 4.00474548 C-28.49477259 4.15696319 -30.76610168 4.2781225 -33.0381012 4.37974548 C-40.94823857 4.83056732 -48.49652838 6.2569652 -56.2256012 8.00474548 C-57.63567172 8.3085291 -59.04583029 8.61190424 -60.45606995 8.91490173 C-67.06880124 10.36935863 -73.44382382 11.97754337 -79.7881012 14.37974548 C-87.32212457 17.21928988 -95.05487276 19.06953339 -102.87623596 20.9495697 C-107.73857593 22.11943819 -112.51442874 23.30259242 -117.2256012 25.00474548 C-117.2256012 25.66474548 -117.2256012 26.32474548 -117.2256012 27.00474548 C-118.8756012 27.33474548 -120.5256012 27.66474548 -122.2256012 28.00474548 C-122.5556012 28.99474548 -122.8856012 29.98474548 -123.2256012 31.00474548 C-124.2156012 31.00474548 -125.2056012 31.00474548 -126.2256012 31.00474548 C-126.2256012 31.66474548 -126.2256012 32.32474548 -126.2256012 33.00474548 C-126.93845276 33.15169861 -127.65130432 33.29865173 -128.38575745 33.45005798 C-134.41446707 34.86189577 -138.28180868 36.38566795 -142.72169495 40.70787048 C-144.74437174 42.45210086 -146.59234047 42.84515392 -149.2256012 43.00474548 C-147.2256012 40.00474548 -147.2256012 40.00474548 -144.2256012 39.00474548 C-143.8956012 38.34474548 -143.5656012 37.68474548 -143.2256012 37.00474548 C-136.99030708 33.00474548 -136.99030708 33.00474548 -132.2256012 33.00474548 C-132.2256012 32.34474548 -132.2256012 31.68474548 -132.2256012 31.00474548 C-131.62231995 30.73919861 -131.0190387 30.47365173 -130.3974762 30.20005798 C-129.59825745 29.84685486 -128.7990387 29.49365173 -127.9756012 29.12974548 C-127.18669495 28.78169861 -126.3977887 28.43365173 -125.5849762 28.07505798 C-124.80638245 27.72185486 -124.0277887 27.36865173 -123.2256012 27.00474548 C-122.48825745 26.67216736 -121.7509137 26.33958923 -120.9912262 25.99693298 C-119.05166487 25.12408734 -119.05166487 25.12408734 -118.2256012 23.00474548 C-116.23442712 22.31216319 -114.2334876 21.64726913 -112.2256012 21.00474548 C-111.2356012 20.34474548 -110.2456012 19.68474548 -109.2256012 19.00474548 C-107.13614319 18.38985617 -105.02818453 17.83719367 -102.9131012 17.31724548 C-97.34391644 15.91667823 -91.91609786 14.26163324 -86.47511292 12.4261322 C-70.32278587 7.01333853 -53.86406223 4.42326043 -36.9912262 2.39927673 C-34.14554805 2.07754999 -34.14554805 2.07754999 -31.2256012 1.00474548 C-29.44878503 0.85553905 -27.66751595 0.75671236 -25.88575745 0.68833923 C-24.82163635 0.6464447 -23.75751526 0.60455017 -22.66114807 0.56138611 C-21.5480426 0.5220697 -20.43493713 0.4827533 -19.2881012 0.44224548 C-18.20980042 0.39906189 -17.13149963 0.3558783 -16.02052307 0.31138611 C-10.67692173 0.10968037 -5.34757441 -0.00439471 0 0 Z " fill="#B9C3FD" transform="translate(568.2256011962891,141.99525451660156)"/>
<path d="M0 0 C0 41.58 0 83.16 0 126 C-10.23 126.66 -20.46 127.32 -31 128 C-33.475 128.99 -33.475 128.99 -36 130 C-37.50997516 130.43542285 -39.03142214 130.83335504 -40.5625 131.1875 C-41.30628906 131.36667969 -42.05007813 131.54585937 -42.81640625 131.73046875 C-45.16706848 132.02062205 -46.75990035 131.71622234 -49 131 C-34.36984997 124.59930936 -18.81747481 124.71897613 -3 124 C-2.67 83.41 -2.34 42.82 -2 1 C-7.94 1.495 -7.94 1.495 -14 2 C-16.17740479 2.11428246 -18.35582701 2.21286748 -20.53515625 2.28125 C-21.61087891 2.31863281 -22.68660156 2.35601562 -23.79492188 2.39453125 C-26.00842724 2.46597733 -28.2219706 2.53625444 -30.43554688 2.60546875 C-31.49966797 2.64285156 -32.56378906 2.68023437 -33.66015625 2.71875 C-35.09307007 2.76418945 -35.09307007 2.76418945 -36.55493164 2.81054688 C-39.13771321 2.91146282 -39.13771321 2.91146282 -42 4 C-43.39439664 4.06665376 -44.79169875 4.08538199 -46.1875 4.0625 C-48.0746875 4.0315625 -48.0746875 4.0315625 -50 4 C-48.68 3.67 -47.36 3.34 -46 3 C-46 2.34 -46 1.68 -46 1 C-42.4587113 0.82466098 -38.9169404 0.66159284 -35.375 0.5 C-34.41464844 0.45230469 -33.45429687 0.40460938 -32.46484375 0.35546875 C-21.61651464 -0.12821471 -10.90152433 0 0 0 Z " fill="#455EFA" transform="translate(576,141)"/>
<path d="M0 0 C4.09379545 0.26103931 8.1871829 0.52768584 12.28027344 0.79956055 C13.67307602 0.89127773 15.06598086 0.98145532 16.45898438 1.07006836 C18.4598971 1.19761942 20.46042608 1.3311462 22.4609375 1.46484375 C24.26763916 1.58267212 24.26763916 1.58267212 26.11083984 1.70288086 C29 2 29 2 31 3 C31.02332902 19.28070303 31.04097919 35.56140067 31.05181217 51.84211636 C31.05697512 59.40101619 31.0640178 66.95990565 31.07543945 74.51879883 C31.08538632 81.10479666 31.09185343 87.69078698 31.09408849 94.27679211 C31.0953956 97.76613071 31.09848142 101.25544784 31.10573006 104.74477959 C31.11374398 108.63381232 31.11399114 112.52282378 31.11352539 116.41186523 C31.11712067 117.57711227 31.12071594 118.74235931 31.12442017 119.94291687 C31.1230455 120.99606079 31.12167084 122.04920471 31.12025452 123.13426208 C31.12117631 124.05513328 31.1220981 124.97600447 31.12304783 125.92478085 C31 128 31 128 30 129 C27.48652712 129.13376155 25.01489545 129.19019376 22.5 129.1875 C21.33307617 129.1862915 21.33307617 129.1862915 20.14257812 129.18505859 C12.90902488 129.11350871 5.7120489 128.66735687 -1.5 128.125 C-2.60408203 128.04660889 -3.70816406 127.96821777 -4.84570312 127.88745117 C-5.87630859 127.80342041 -6.90691406 127.71938965 -7.96875 127.6328125 C-8.89107422 127.55949707 -9.81339844 127.48618164 -10.76367188 127.41064453 C-13 127 -13 127 -15 125 C-0.48 125.66 14.04 126.32 29 127 C29 86.41 29 45.82 29 4 C24.05 4 19.1 4 14 4 C9.47265625 3.34375 9.47265625 3.34375 6.0625 2.5 C4.89847656 2.2215625 3.73445312 1.943125 2.53515625 1.65625 C1.69855469 1.4396875 0.86195313 1.223125 0 1 C0 0.67 0 0.34 0 0 Z " fill="#7488FB" transform="translate(544,609)"/>
<path d="M0 0 C4.73491123 0.78047987 9.46192663 1.60270174 14.1875 2.4375 C14.94144043 2.56946777 15.69538086 2.70143555 16.47216797 2.83740234 C20.53449404 3.55111296 24.5804169 4.31608338 28.625 5.125 C35.35674856 6.22086605 42.19474232 6.54631615 49 7 C49 47.59 49 88.18 49 130 C43.39 130 37.78 130 32 130 C32 129.67 32 129.34 32 129 C37.28 129 42.56 129 48 129 C48 89.07 48 49.14 48 8 C40.74 8 33.48 8 26 8 C20.52342706 7.14549926 15.35687438 6.24952497 10 5 C9.02804687 4.82210937 8.05609375 4.64421875 7.0546875 4.4609375 C4.5625 4 4.5625 4 1 3 C0.67 2.01 0.34 1.02 0 0 Z " fill="#DADFFE" transform="translate(524,606)"/>
<path d="M0 0 C0.93423645 3.01031744 1.04449911 3.86650268 0 7 C-0.19043071 8.54551955 -0.34073033 10.09618417 -0.46484375 11.6484375 C-0.54283203 12.57269531 -0.62082031 13.49695313 -0.70117188 14.44921875 C-0.85556385 16.36061696 -1.00924089 18.27207309 -1.16210938 20.18359375 C-1.57618181 25.07840122 -2.1453945 29.83229154 -3.0546875 34.66015625 C-4.58819425 44.26546541 -4.26056293 53.99491739 -4.20581055 63.69604492 C-4.187373 67.0858501 -4.1853026 70.47538389 -4.18554688 73.86523438 C-4.18063701 76.02604403 -4.17481103 78.18685185 -4.16796875 80.34765625 C-4.16685593 81.35804459 -4.1657431 82.36843292 -4.16459656 83.40943909 C-4.15502678 84.81757118 -4.15502678 84.81757118 -4.14526367 86.25415039 C-4.14145187 87.07653702 -4.13764008 87.89892365 -4.13371277 88.74623108 C-4.00249195 90.95799741 -3.58365792 92.86919778 -3 95 C-2.88113153 96.40752977 -2.80097006 97.81871283 -2.75390625 99.23046875 C-2.72103516 100.03419922 -2.68816406 100.83792969 -2.65429688 101.66601562 C-2.59381413 103.32736085 -2.53644589 104.98882283 -2.48242188 106.65039062 C-2.27244073 111.63050937 -1.64795264 116.24013116 -0.42993164 121.07714844 C0.09292023 123.41558192 0.15399801 125.6130308 0 128 C-0.66 127.67 -1.32 127.34 -2 127 C-2.37890625 125.00390625 -2.37890625 125.00390625 -2.5625 122.5625 C-2.8061175 119.15371795 -2.8061175 119.15371795 -4 116 C-4.38034161 113.1444665 -4.71164202 110.30260248 -5 107.4375 C-5.08685059 106.57688965 -5.17370117 105.7162793 -5.26318359 104.82958984 C-10.18724073 54.61898845 -10.18724073 54.61898845 -5.484375 31.4609375 C-4.90206316 28.50241765 -4.8103799 25.63731287 -4.6875 22.625 C-4.18404925 14.70404153 -2.27990308 7.57139906 0 0 Z " fill="#CDD5FE" transform="translate(281,373)"/>
<path d="M0 0 C0.33 0 0.66 0 1 0 C0.67 15.51 0.34 31.02 0 47 C0.66 47 1.32 47 2 47 C2.10957031 48.01578125 2.21914063 49.0315625 2.33203125 50.078125 C3.17756893 57.55296999 4.23984061 64.76583832 6.2109375 72.04296875 C7.37137799 76.39174821 8.29992504 80.78948492 9.25390625 85.1875 C9.92425235 87.71445911 10.83641093 89.68280976 12 92 C12 92.99 12 93.98 12 95 C12.66 95 13.32 95 14 95 C17.11450382 99.15267176 17.11450382 99.15267176 16.6875 102.3125 C16.460625 102.869375 16.23375 103.42625 16 104 C15.34 102.35 14.68 100.7 14 99 C13.34 99 12.68 99 12 99 C10.14223235 95.86501708 9.79859524 93.62528568 10 90 C9.34 90 8.68 90 8 90 C0.80229193 66.46706795 0.80229193 66.46706795 1 55 C0.34 55 -0.32 55 -1 55 C-3.80329746 13.55124473 -3.80329746 13.55124473 0 0 Z " fill="#AFBAFD" transform="translate(400,411)"/>
<path d="M0 0 C0.6875 1.6875 0.6875 1.6875 1 4 C-0.44798473 6.97641305 -2.31752494 9.420506 -4.3125 12.0625 C-10.31482829 20.4441296 -13.80909516 29.79439051 -16.82421875 39.5546875 C-18 43 -18 43 -19.5078125 45.859375 C-21.44106111 49.92830664 -22.28678065 53.98005033 -23.1875 58.375 C-23.36474609 59.20644531 -23.54199219 60.03789062 -23.72460938 60.89453125 C-24.15704507 62.92814774 -24.57954198 64.96387336 -25 67 C-25.33 67 -25.66 67 -26 67 C-26.22080724 61.47981904 -25.92338039 57.23586884 -24 52 C-23.47462501 49.42970391 -23.00729928 46.85492705 -22.5625 44.26953125 C-22 42 -22 42 -20 39 C-19.3535252 36.80367949 -18.7552803 34.59296731 -18.1875 32.375 C-16.72109321 27.03860235 -14.9912294 22.54641459 -12.05078125 17.8671875 C-10.95477286 15.91963356 -10.44117563 14.18163771 -10 12 C-9.01 12 -8.02 12 -7 12 C-6.67 10.68 -6.34 9.36 -6 8 C-5.34 8 -4.68 8 -4 8 C-3.71125 7.05125 -3.4225 6.1025 -3.125 5.125 C-2 2 -2 2 0 0 Z " fill="#BFC8FD" transform="translate(427,344)"/>
<path d="M0 0 C0.66 0.33 1.32 0.66 2 1 C-2.13533523 5.98764185 -6.55915394 10.63369225 -11.16015625 15.1875 C-11.71657806 15.73841309 -12.27299988 16.28932617 -12.84628296 16.85693359 C-15.16808854 19.15115018 -17.49341162 21.44172059 -19.82348633 23.72753906 C-28.4800267 32.11027478 -28.4800267 32.11027478 -35.84936523 41.609375 C-37 43 -37 43 -40 44 C-36.28677188 33.24510613 -25.71984731 24.20381327 -18 16 C-17.38382812 15.34128906 -16.76765625 14.68257813 -16.1328125 14.00390625 C-11.1655258 8.85836763 -5.58451988 4.45347788 0 0 Z " fill="#2B48F9" transform="translate(468,300)"/>
<path d="M0 0 C1.5 1.375 1.5 1.375 3 3 C3 3.66 3 4.32 3 5 C3.66 5 4.32 5 5 5 C8.88591549 11.51830986 8.88591549 11.51830986 9.5625 14.375 C9.7790625 15.179375 9.7790625 15.179375 10 16 C10.99 16.33 11.98 16.66 13 17 C14.16796875 18.77734375 14.16796875 18.77734375 15.1875 20.9375 C15.53167969 21.64777344 15.87585938 22.35804688 16.23046875 23.08984375 C17 25 17 25 17 27 C17.66 27 18.32 27 19 27 C19.66 28.98 20.32 30.96 21 33 C21.66 33 22.32 33 23 33 C24.65625 35.01171875 24.65625 35.01171875 26.5 37.6875 C27.1084375 38.55761719 27.716875 39.42773438 28.34375 40.32421875 C30 43 30 43 31.03515625 45.59765625 C32.03974302 48.09895529 33.17652748 49.72465756 34.9375 51.75 C35.44152344 52.34296875 35.94554687 52.9359375 36.46484375 53.546875 C38.04853832 55.25090252 38.04853832 55.25090252 41 56 C40.67 57.32 40.34 58.64 40 60 C38.41224451 58.60919892 36.82999061 57.21211596 35.25 55.8125 C34.36828125 55.03519531 33.4865625 54.25789062 32.578125 53.45703125 C29.03289108 50.07831589 26.49856045 47.17284302 24.5703125 42.63671875 C22.80233733 38.54222899 20.55012319 35.34720889 17.875 31.8125 C12.83692796 25.14026579 12.83692796 25.14026579 12 21 C11.34 21 10.68 21 10 21 C0 2.86666667 0 2.86666667 0 0 Z " fill="#ADB9FD" transform="translate(308,577)"/>
<path d="M0 0 C-4.10188948 1.34041103 -8.20686436 2.67111192 -12.3125 4 C-13.47974609 4.3815625 -14.64699219 4.763125 -15.84960938 5.15625 C-16.96787109 5.5171875 -18.08613281 5.878125 -19.23828125 6.25 C-20.26993408 6.58515625 -21.30158691 6.9203125 -22.36450195 7.265625 C-25 8 -25 8 -28 8 C-28 8.66 -28 9.32 -28 10 C-29.01320313 10.26554688 -30.02640625 10.53109375 -31.0703125 10.8046875 C-32.42190177 11.16135689 -33.77346278 11.51813343 -35.125 11.875 C-35.79015625 12.04902344 -36.4553125 12.22304687 -37.140625 12.40234375 C-41.14797664 13.4631133 -45.07952899 14.64432311 -49 16 C-49 16.66 -49 17.32 -49 18 C-50.65 18.33 -52.3 18.66 -54 19 C-54.33 19.99 -54.66 20.98 -55 22 C-55.99 22 -56.98 22 -58 22 C-58 22.66 -58 23.32 -58 24 C-58.71285156 24.14695313 -59.42570312 24.29390625 -60.16015625 24.4453125 C-66.18886587 25.85715028 -70.05620748 27.38092246 -74.49609375 31.703125 C-76.51877055 33.44735538 -78.36673928 33.84040844 -81 34 C-79 31 -79 31 -76 30 C-75.67 29.34 -75.34 28.68 -75 28 C-68.76470588 24 -68.76470588 24 -64 24 C-64 23.34 -64 22.68 -64 22 C-63.39671875 21.73445313 -62.7934375 21.46890625 -62.171875 21.1953125 C-61.37265625 20.84210938 -60.5734375 20.48890625 -59.75 20.125 C-58.96109375 19.77695313 -58.1721875 19.42890625 -57.359375 19.0703125 C-56.58078125 18.71710938 -55.8021875 18.36390625 -55 18 C-54.26265625 17.66742188 -53.5253125 17.33484375 -52.765625 16.9921875 C-50.82606368 16.11934186 -50.82606368 16.11934186 -50 14 C-48.00882592 13.30741771 -46.0078864 12.64252365 -44 12 C-43.01 11.34 -42.02 10.68 -41 10 C-38.910542 9.38511069 -36.80258333 8.83244818 -34.6875 8.3125 C-26.80104212 6.33116332 -19.10865343 3.82447174 -11.41479492 1.19848633 C-10.51092041 0.89966553 -9.6070459 0.60084473 -8.67578125 0.29296875 C-7.87052002 0.0199292 -7.06525879 -0.25311035 -6.2355957 -0.53442383 C-3.78267665 -1.04525889 -2.34896056 -0.79888165 0 0 Z " fill="#90A0FC" transform="translate(500,151)"/>
<path d="M0 0 C0.77261673 0.00141495 1.54523346 0.0028299 2.34126282 0.00428772 C4.80697514 0.00988159 7.2725964 0.02243292 9.73828125 0.03515625 C11.41080598 0.04017204 13.08333213 0.04473481 14.75585938 0.04882812 C18.85420171 0.05984901 22.95247604 0.07710941 27.05078125 0.09765625 C27.05078125 0.42765625 27.05078125 0.75765625 27.05078125 1.09765625 C26.28411133 1.1227124 25.51744141 1.14776855 24.72753906 1.17358398 C21.25178842 1.28967048 17.77630033 1.41233991 14.30078125 1.53515625 C13.09421875 1.57447266 11.88765625 1.61378906 10.64453125 1.65429688 C9.484375 1.69619141 8.32421875 1.73808594 7.12890625 1.78125 C6.0605957 1.81790771 4.99228516 1.85456543 3.89160156 1.89233398 C1.45375493 2.06853105 -0.60552472 2.46110127 -2.94921875 3.09765625 C-5.21839014 3.24987396 -7.48971923 3.37103327 -9.76171875 3.47265625 C-17.67185612 3.92347809 -25.22014594 5.34987597 -32.94921875 7.09765625 C-34.35928927 7.40143986 -35.76944785 7.70481501 -37.1796875 8.0078125 C-45.35136341 9.80672512 -52.99529997 12.10850784 -60.83203125 15.05859375 C-64.92751705 16.42375568 -68.65083128 16.87532586 -72.94921875 17.09765625 C-67.70145996 13.59915039 -61.43141582 12.12038421 -55.44921875 10.22265625 C-54.74157379 9.99699982 -54.03392883 9.77134338 -53.30484009 9.53884888 C-40.09815234 5.37155908 -27.04920268 2.91222551 -13.26049805 1.41967773 C-2.92637013 -0.0201358 -2.92637013 -0.0201358 0 0 Z " fill="#CED5FD" transform="translate(544.94921875,142.90234375)"/>
<path d="M0 0 C0.33 0 0.66 0 1 0 C1.02730408 1.56240032 1.04653226 3.1249427 1.0625 4.6875 C1.07410156 5.55761719 1.08570313 6.42773438 1.09765625 7.32421875 C0.99989447 10.00289162 0.5347228 12.3774992 0 15 C-2.15446151 36.70420488 -2.60030381 60.04643179 0.53125 81.66796875 C1.07389085 85.52524082 1.06819449 89.11291398 1 93 C0.34 93 -0.32 93 -1 93 C-4.92406867 79.92251616 -3.15656868 63.7989543 -3.13037109 50.2890625 C-3.12500843 47.00516139 -3.13035081 43.721397 -3.13671875 40.4375 C-3.14006457 28.58793847 -2.89200293 16.81751494 -2 5 C-1.34 5 -0.68 5 0 5 C0 3.35 0 1.7 0 0 Z " fill="#7184FB" transform="translate(276,392)"/>
<path d="M0 0 C3.54001589 1.48760218 5.59907603 3.50719533 8.1875 6.3125 C11.15211384 9.36945427 13.7446481 11.61749517 17.5625 13.5 C22.17003852 15.79577006 24.76260693 18.99114332 28.0078125 22.9140625 C30.9622472 26.00752942 34.1105681 27.29410882 38 29 C38.495 29.99 38.495 29.99 39 31 C40.11375 31.433125 41.2275 31.86625 42.375 32.3125 C46.24725314 34.1151006 47.25752169 35.20754721 49 39 C43.62238419 38.53844814 39.70301576 35.56609939 35.3125 32.6875 C34.54099609 32.20087891 33.76949219 31.71425781 32.97460938 31.21289062 C32.23662109 30.73400391 31.49863281 30.25511719 30.73828125 29.76171875 C30.06837158 29.32819092 29.39846191 28.89466309 28.70825195 28.44799805 C26.76161067 26.79792953 26.04122843 25.30450057 25 23 C23.23919707 21.13735485 23.23919707 21.13735485 21.1875 19.4375 C20.52105469 18.85871094 19.85460937 18.27992188 19.16796875 17.68359375 C17.04114758 15.94668441 17.04114758 15.94668441 14.6328125 14.66796875 C11.18347709 12.4827073 8.53111217 9.78426057 5.6875 6.875 C5.13771484 6.32457031 4.58792969 5.77414062 4.02148438 5.20703125 C0 1.14058618 0 1.14058618 0 0 Z " fill="#566CFA" transform="translate(365,653)"/>
<path d="M0 0 C0.33 0 0.66 0 1 0 C1.2836752 4.8224784 0.88682109 8.63648306 -0.4375 13.28125 C-2.93586214 23.77644003 -2.83515177 34.57515131 -3.1875 45.3125 C-3.26903905 47.5176207 -3.35171209 49.72269977 -3.43554688 51.92773438 C-3.63677636 57.2847464 -3.82399398 62.64210302 -4 68 C-4.66 68 -5.32 68 -6 68 C-6.05012236 62.98699333 -6.08605439 57.97413833 -6.10986328 52.9609375 C-6.11980786 51.26201836 -6.13336831 49.56311581 -6.15087891 47.86425781 C-6.28957955 34.04314684 -5.25403787 21.09109167 -1.875 7.625 C-1.69324219 6.87734375 -1.51148438 6.1296875 -1.32421875 5.359375 C-0.88870375 3.57147133 -0.44529259 1.78549359 0 0 Z " fill="#415AF9" transform="translate(406,390)"/>
<path d="M0 0 C3.87898501 0.68959733 7.51564667 1.74908361 11.25 3 C12.83554687 3.5259375 12.83554687 3.5259375 14.453125 4.0625 C17 5 17 5 18 6 C19.27875 6.226875 20.5575 6.45375 21.875 6.6875 C27.3225929 7.72325424 32.53552929 9.32370881 37.8125 11 C38.63669434 11.26127686 39.46088867 11.52255371 40.31005859 11.79174805 C44.26756626 13.06429355 48.16651514 14.38262708 52 16 C48.99369405 16.93947061 47.04624686 17.01156172 44 16.25 C43.20851563 16.05535156 42.41703125 15.86070312 41.6015625 15.66015625 C40.74304688 15.44230469 39.88453125 15.22445312 39 15 C38.10023438 14.79246094 37.20046875 14.58492187 36.2734375 14.37109375 C25.13921184 11.74509713 14.06780366 8.50879823 4 3 C2.66903069 2.3286261 1.3362318 1.66083795 0 1 C0 0.67 0 0.34 0 0 Z " fill="#CAD2FD" transform="translate(450,711)"/>
<path d="M0 0 C2.89973849 2.70725049 4.89777577 5.2847354 6.8125 8.75 C11.65751733 17.07522383 11.65751733 17.07522383 19 23 C19.45375 23.763125 19.9075 24.52625 20.375 25.3125 C22.49352702 28.81621776 24.65217019 31.25120566 28.25 33.25 C32.40567457 35.89452018 35.60669812 39.45513625 39 43 C36 43 36 43 33 42 C32.67 41.01 32.34 40.02 32 39 C31.05125 38.71125 30.1025 38.4225 29.125 38.125 C25.23264248 36.72375129 25.01208726 35.50492619 23 32 C19.28640012 27.47294491 15.46145558 22.94967598 10.75 19.4375 C7.59960143 16.64510127 6.0531723 13.90611828 4.17578125 10.18359375 C3.05412042 7.93793017 3.05412042 7.93793017 1.35546875 5.97265625 C0 4 0 4 0 0 Z " fill="#9AA9FC" transform="translate(426,530)"/>
<path d="M0 0 C0.66 0.33 1.32 0.66 2 1 C1.401875 1.556875 0.80375 2.11375 0.1875 2.6875 C-2.04618197 4.8718854 -2.04618197 4.8718854 -3.37182617 7.36083984 C-6.28257532 12.07896824 -10.40280328 15.73005686 -14.3125 19.625 C-15.15490234 20.48351562 -15.99730469 21.34203125 -16.86523438 22.2265625 C-17.68958984 23.0515625 -18.51394531 23.8765625 -19.36328125 24.7265625 C-20.48150269 25.84925537 -20.48150269 25.84925537 -21.62231445 26.99462891 C-24.24616387 29.20761783 -26.88483024 30.58286575 -30 32 C-26.64292529 24.48896921 -20.05384165 18.90089764 -13.875 13.6875 C-11.47707774 11.52936997 -9.4972122 9.13225276 -7.453125 6.64453125 C-5.20772988 4.10337172 -2.66283349 2.09222631 0 0 Z " fill="#D0D7FE" transform="translate(375,215)"/>
<path d="M0 0 C-1.28022875 2.80969467 -2.60714129 4.8539238 -4.79736328 7.02441406 C-5.35779327 7.58469299 -5.91822327 8.14497192 -6.49563599 8.722229 C-7.09777924 9.31404968 -7.69992249 9.90587036 -8.3203125 10.515625 C-8.93897186 11.13145447 -9.55763123 11.74728394 -10.19503784 12.3817749 C-12.16703814 14.34260336 -14.14588737 16.29635301 -16.125 18.25 C-17.46530164 19.58026799 -18.80515083 20.910992 -20.14453125 22.2421875 C-23.42446589 25.5001015 -26.71055942 28.75168533 -30 32 C-30.66 31.67 -31.32 31.34 -32 31 C-26.57230115 24.54043278 -20.71687632 18.53063547 -14.75512695 12.56982422 C-13.16783666 10.9803091 -11.58876447 9.38290343 -10.00976562 7.78515625 C-9.00048793 6.77295074 -7.99073996 5.76121389 -6.98046875 4.75 C-5.61764771 3.38101563 -5.61764771 3.38101563 -4.22729492 1.984375 C-2 0 -2 0 0 0 Z " fill="#2F4CFF" transform="translate(272,121)"/>
<path d="M0 0 C3.40312738 1.05875074 6.01353231 2.00902154 9 4 C9 4.66 9 5.32 9 6 C10.8253125 5.9071875 10.8253125 5.9071875 12.6875 5.8125 C16.56519349 5.80561244 18.91876927 6.49650003 22 9 C22 9.66 22 10.32 22 11 C22.84304688 11.19335938 23.68609375 11.38671875 24.5546875 11.5859375 C25.65039062 11.84632813 26.74609375 12.10671875 27.875 12.375 C29.51082031 12.75785156 29.51082031 12.75785156 31.1796875 13.1484375 C34 14 34 14 36 16 C32.7 15.67 29.4 15.34 26 15 C26 14.34 26 13.68 26 13 C23.69 12.67 21.38 12.34 19 12 C18.67 11.01 18.34 10.02 18 9 C17.0925 9.04125 16.185 9.0825 15.25 9.125 C12.1217954 9.00468444 10.61385994 8.6085292 8 7 C8 6.34 8 5.68 8 5 C6.68 5 5.36 5 4 5 C4 4.34 4 3.68 4 3 C3.01 3 2.02 3 1 3 C0.67 2.01 0.34 1.02 0 0 Z " fill="#A7B4FC" transform="translate(487,590)"/>
<path d="M0 0 C2.53094548 3.79641822 3.80580646 7.28391134 5 11.6875 C5.72845517 15.04350571 5.72845517 15.04350571 8 17 C8.34375 18.91796875 8.34375 18.91796875 8.5 21.1875 C8.96967516 26.32096713 10.0963112 30.95480956 12.1875 35.6875 C13.11944901 38.33997026 12.77945907 39.3741627 12 42 C0 8.75409836 0 8.75409836 0 0 Z " fill="#8F9FFC" transform="translate(281,507)"/>
<path d="M0 0 C1.36722938 3.69151932 0.5123038 5.47129113 -1 9 C-1.37593066 10.9924325 -1.71979545 12.9918674 -2 15 C-2.66 15 -3.32 15 -4 15 C-4.12375 16.27875 -4.2475 17.5575 -4.375 18.875 C-4.75 22.75 -4.75 22.75 -7 25 C-7.55693113 26.64851615 -8.05043737 28.3190267 -8.5 30 C-9.77777778 34.77777778 -9.77777778 34.77777778 -12 37 C-10.34839555 26.26457109 -7.33550939 16.93554236 -3 7 C-2.43656863 5.68789955 -1.87404531 4.37540874 -1.3125 3.0625 C-0.879375 2.051875 -0.44625 1.04125 0 0 Z " fill="#BAC4FE" transform="translate(297,322)"/>
<path d="M0 0 C5.04424468 0.44508041 7.44443409 2.60980925 11 6 C11 6.66 11 7.32 11 8 C11.94875 8.20625 12.8975 8.4125 13.875 8.625 C19.01893368 10.08262392 23.71823167 12.82959609 28 16 C28 16.66 28 17.32 28 18 C23.34572822 16.67020806 19.99456113 14.69021464 16 12 C13.69657248 10.89714683 11.37339472 9.94935789 9 9 C9 8.34 9 7.68 9 7 C8.2575 6.773125 7.515 6.54625 6.75 6.3125 C3.48860409 4.75592468 2.07105025 2.91481146 0 0 Z " fill="#596FFA" transform="translate(465,574)"/>
<path d="M0 0 C-1.6393725 3.27874501 -5.16040431 4.11354191 -8.375 5.5625 C-9.06078125 5.87896484 -9.7465625 6.19542969 -10.453125 6.52148438 C-13.27483157 7.81430908 -16.05352444 9.01784148 -19 10 C-19.721875 10.78375 -20.44375 11.5675 -21.1875 12.375 C-24.67298106 15.62811565 -27.49571236 16.54946669 -32 18 C-32 17.34 -32 16.68 -32 16 C-30.1563971 14.61509256 -28.24777736 13.31611151 -26.3125 12.0625 C-25.25675781 11.37285156 -24.20101563 10.68320312 -23.11328125 9.97265625 C-12.10891089 3 -12.10891089 3 -7 3 C-7 2.34 -7 1.68 -7 1 C-4.53721199 -0.231394 -2.7204945 -0.07159196 0 0 Z " fill="#CFD6FE" transform="translate(504,279)"/>
<path d="M0 0 C0.61328125 1.828125 0.61328125 1.828125 1 4 C-0.8125 6.75 -0.8125 6.75 -3 9 C-3.66 9 -4.32 9 -5 9 C-5.40798828 9.86431641 -5.40798828 9.86431641 -5.82421875 10.74609375 C-8.71757772 16.29249948 -12.22778626 21.28366412 -18 24 C-13.96416791 15.03148424 -6.58995279 7.20445 0 0 Z " fill="#C6CEFE" transform="translate(344,247)"/>
<path d="M0 0 C-1.65 0.33 -3.3 0.66 -5 1 C-5.33 1.99 -5.66 2.98 -6 4 C-6.99 4 -7.98 4 -9 4 C-9 4.66 -9 5.32 -9 6 C-10.06927734 6.22042969 -10.06927734 6.22042969 -11.16015625 6.4453125 C-17.18886587 7.85715028 -21.05620748 9.38092246 -25.49609375 13.703125 C-27.51877055 15.44735538 -29.36673928 15.84040844 -32 16 C-30 13 -30 13 -27 12 C-26.67 11.34 -26.34 10.68 -26 10 C-19.76470588 6 -19.76470588 6 -15 6 C-15 5.34 -15 4.68 -15 4 C-14.37351562 3.72285156 -13.74703125 3.44570312 -13.1015625 3.16015625 C-12.28429687 2.79792969 -11.46703125 2.43570313 -10.625 2.0625 C-9.81289063 1.70285156 -9.00078125 1.34320313 -8.1640625 0.97265625 C-3.5982659 -1.07947977 -3.5982659 -1.07947977 0 0 Z " fill="#AEB9FD" transform="translate(451,169)"/>
<path d="M0 0 C0.87491004 2.4497481 1.12900603 3.63448293 0.25 6.125 C-1 8 -1 8 -4 10 C-5.08265297 12.41359435 -6.04006284 14.76955035 -6.9375 17.25 C-8.79145838 22.33714187 -10.83012718 26.59093283 -14 31 C-14.74984385 28.77017686 -15.13299032 27.43986418 -14.44262695 25.15649414 C-13.97022583 24.23018188 -13.97022583 24.23018188 -13.48828125 23.28515625 C-13.14216797 22.59873047 -12.79605469 21.91230469 -12.43945312 21.20507812 C-12.06755859 20.49802734 -11.69566406 19.79097656 -11.3125 19.0625 C-10.95994141 18.35931641 -10.60738281 17.65613281 -10.24414062 16.93164062 C-8.17925513 12.90379268 -5.90743284 9.49269529 -3 6 C-2.28837557 4.35202764 -1.60968047 2.68834592 -1 1 C-0.67 0.67 -0.34 0.34 0 0 Z " fill="#94A2FC" transform="translate(313,291)"/>
<path d="M0 0 C0 0.33 0 0.66 0 1 C-9.12345368 1.94159893 -18.22263971 2.32008221 -27.38671875 2.60546875 C-28.45535156 2.64285156 -29.52398438 2.68023437 -30.625 2.71875 C-31.58664062 2.74904297 -32.54828125 2.77933594 -33.5390625 2.81054688 C-36.13523168 2.91036792 -36.13523168 2.91036792 -39 4 C-40.39439664 4.06665376 -41.79169875 4.08538199 -43.1875 4.0625 C-45.0746875 4.0315625 -45.0746875 4.0315625 -47 4 C-45.68 3.67 -44.36 3.34 -43 3 C-43 2.34 -43 1.68 -43 1 C-28.65629181 0.30758322 -14.3608521 -0.1524147 0 0 Z " fill="#8E9DFC" transform="translate(573,141)"/>
<path d="M0 0 C3.54001589 1.48760218 5.59907603 3.50719533 8.1875 6.3125 C11.85805507 10.09794889 15.30019968 12.46045466 19.98046875 14.8046875 C23.12439393 16.66550201 24.87908583 19.05808679 27 22 C22.10187531 21.58016074 20.305919 19.47121495 17 16 C16.25363281 15.5771875 15.50726563 15.154375 14.73828125 14.71875 C11.23493286 12.51978667 8.5671637 9.82114439 5.6875 6.875 C5.13771484 6.32457031 4.58792969 5.77414062 4.02148438 5.20703125 C0 1.14058618 0 1.14058618 0 0 Z " fill="#AAB6FD" transform="translate(365,653)"/>
<path d="M0 0 C1.49751807 3.89354699 0.32822419 6.15514051 -1 10 C-1.33687317 11.70369466 -1.64679934 13.41282239 -1.9375 15.125 C-2.97657636 21.16826812 -4.44779512 27.07057738 -6 33 C-8.00723906 27.22029037 -5.97305087 20.85726077 -5 15 C-4.84273438 14.02160156 -4.68546875 13.04320312 -4.5234375 12.03515625 C-3.70802019 7.439796 -2.81952763 3.84481041 0 0 Z " fill="#415AFA" transform="translate(284,355)"/>
<path d="M0 0 C3.7812617 0.68118317 7.35121112 1.6742506 11 2.875 C12.010625 3.20242188 13.02125 3.52984375 14.0625 3.8671875 C17 5 17 5 19.38671875 6.46484375 C22.72403328 8.42532897 26.13619098 9.52304231 29.8125 10.6875 C30.50537109 10.91244141 31.19824219 11.13738281 31.91210938 11.36914062 C33.60629082 11.91828909 35.30290633 12.45991862 37 13 C33.61482115 14.15245285 31.65606755 13.8422829 28.296875 12.70703125 C27.39839844 12.40603516 26.49992187 12.10503906 25.57421875 11.79492188 C24.64222656 11.47072266 23.71023438 11.14652344 22.75 10.8125 C21.83347656 10.50763672 20.91695313 10.20277344 19.97265625 9.88867188 C14.39750656 7.99184848 9.19653086 5.76020718 4 3 C2.66813218 2.33041033 1.33516331 1.66299409 0 1 C0 0.67 0 0.34 0 0 Z " fill="#7285FA" transform="translate(450,711)"/>
<path d="M0 0 C0.6875 1.6875 0.6875 1.6875 1 4 C-0.44798473 6.97641305 -2.31752494 9.420506 -4.3125 12.0625 C-7.89985846 16.98418082 -10.38270574 22.52256975 -13 28 C-13.66015625 26.28125 -13.66015625 26.28125 -14 24 C-12.99609375 21.84375 -12.99609375 21.84375 -11.4375 19.5 C-8.33888011 14.64621779 -5.78471774 9.65844345 -3.296875 4.46875 C-2 2 -2 2 0 0 Z " fill="#4F67F9" transform="translate(427,344)"/>
<path d="M0 0 C-2.76025975 1.84017316 -3.8471963 2.31103396 -6.9375 2.875 C-11.90801989 3.87725237 -16.55117495 5.53592485 -21.30078125 7.29296875 C-24.06428048 8.01683758 -25.36354888 7.98318961 -28 7 C-21.43210168 0.43210168 -8.79738922 -0.43986946 0 0 Z " fill="#C3CCFD" transform="translate(544,267)"/>
<path d="M0 0 C2.73032273 0.28296619 5.45892148 0.57603882 8.1875 0.875 C8.95642578 0.95363281 9.72535156 1.03226563 10.51757812 1.11328125 C13.73852023 1.47269968 16.51575899 1.80271662 19.53125 3.03125 C23.0786302 4.42325995 26.53260049 4.46285954 30.3125 4.625 C31.05306641 4.66367187 31.79363281 4.70234375 32.55664062 4.7421875 C34.37071309 4.83581705 36.18532116 4.91896851 38 5 C38 5.33 38 5.66 38 6 C25.00383909 6.26254871 12.49597048 6.0684555 0 2 C0 1.34 0 0.68 0 0 Z " fill="#2C49F9" transform="translate(509,731)"/>
<path d="M0 0 C1.39987708 2.67051745 2.49362807 5.27898016 3.40234375 8.15234375 C3.65306641 8.92900391 3.90378906 9.70566406 4.16210938 10.50585938 C4.67754586 12.12227857 5.19058185 13.73946526 5.70117188 15.35742188 C7.08038921 19.61500583 8.61272162 23.18600496 11 27 C11.1875 29.8125 11.1875 29.8125 11 32 C5.19775261 24.8782911 2.74337006 15.86213115 1 7 C0.67 6.67 0.34 6.34 0 6 C-0.04080783 4.00041636 -0.04254356 1.99954746 0 0 Z " fill="#DDE2FE" transform="translate(289,527)"/>
<path d="M0 0 C4.5926738 6.8890107 6.80573991 13.83922269 8 22 C8.66 22 9.32 22 10 22 C13.11450382 26.15267176 13.11450382 26.15267176 12.6875 29.3125 C12.460625 29.869375 12.23375 30.42625 12 31 C11.34 29.35 10.68 27.7 10 26 C9.34 26 8.68 26 8 26 C6.14223235 22.86501708 5.79859524 20.62528568 6 17 C5.34 17 4.68 17 4 17 C2.19003784 11.34244531 0.64270983 5.9129304 0 0 Z " fill="#C3CBFE" transform="translate(404,484)"/>
<path d="M0 0 C2.39824947 2.39824947 2.31436204 3.27335218 2.5625 6.5625 C2.58449303 9.58047788 2.58449303 9.58047788 4 12 C4.37732113 14.03399672 4.70156766 16.07794064 5 18.125 C5.17273438 19.29675781 5.34546875 20.46851563 5.5234375 21.67578125 C5.68070312 22.77277344 5.83796875 23.86976563 6 25 C6.17402344 26.19689453 6.17402344 26.19689453 6.3515625 27.41796875 C6.57191705 28.94471098 6.78682403 30.47223891 7 32 C1.09147421 23.13721132 -0.39454618 10.45547369 0 0 Z " fill="#445DF9" transform="translate(277,489)"/>
<path d="M0 0 C3.70219993 3.59001205 7.05541245 7.36081317 10.3515625 11.328125 C11.99880664 13.25155549 11.99880664 13.25155549 15 14 C14.67 15.32 14.34 16.64 14 18 C12.41224451 16.60919892 10.82999061 15.21211596 9.25 13.8125 C8.36828125 13.03519531 7.4865625 12.25789062 6.578125 11.45703125 C4.08898272 9.08480323 1.93906811 6.84064418 0 4 C0 2.68 0 1.36 0 0 Z " fill="#536AFA" transform="translate(334,619)"/>
<path d="M0 0 C0 6.2978712 -4.70704481 11.81922686 -8 17 C-9.80895505 19.94792675 -11.49942177 22.88341444 -13 26 C-13.32819082 21.7564164 -12.43363726 19.40455387 -10.3125 15.75 C-9.76722656 14.79867188 -9.22195313 13.84734375 -8.66015625 12.8671875 C-8.11230469 11.92101562 -7.56445312 10.97484375 -7 10 C-5.68862484 7.56205052 -4.38174013 5.12179318 -3.078125 2.6796875 C-2 1 -2 1 0 0 Z " fill="#3A54F9" transform="translate(313,289)"/>
<path d="M0 0 C0.66 0 1.32 0 2 0 C2.66 1.98 3.32 3.96 4 6 C4.66 6 5.32 6 6 6 C7.7265625 8.1875 7.7265625 8.1875 9.625 11 C10.25664062 11.928125 10.88828125 12.85625 11.5390625 13.8125 C12.26222656 14.8953125 12.26222656 14.8953125 13 16 C12.67 16.66 12.34 17.32 12 18 C6.53504973 14.30312188 1.89446397 8.70786516 0.328125 2.21484375 C0.21984375 1.48394531 0.1115625 0.75304687 0 0 Z " fill="#BAC4FD" transform="translate(325,604)"/>
<path d="M0 0 C-3.24377174 1.20502099 -6.49582689 2.38588782 -9.75 3.5625 C-11.13058594 4.07586914 -11.13058594 4.07586914 -12.5390625 4.59960938 C-13.42851563 4.91865234 -14.31796875 5.23769531 -15.234375 5.56640625 C-16.05131836 5.86490479 -16.86826172 6.16340332 -17.70996094 6.47094727 C-20.21309263 7.04922939 -21.59871738 6.83176958 -24 6 C-7.5541182 -2.05387109 -7.5541182 -2.05387109 0 0 Z " fill="#4E66F9" transform="translate(527,274)"/>
<path d="M0 0 C5.52950862 -0.19401785 9.67427942 0.3181935 15 2 C17.99092279 2.70938553 20.99370194 3.35920177 24 4 C24 4.33 24 4.66 24 5 C15.62504986 4.61387352 7.99730769 3.54824033 0 1 C0 0.67 0 0.34 0 0 Z " fill="#ADB8FD" transform="translate(502,728)"/>
<path d="M0 0 C0.33 0.66 0.66 1.32 1 2 C0.109375 3.98828125 0.109375 3.98828125 -1.25 6.3125 C-1.94996094 7.52679688 -1.94996094 7.52679688 -2.6640625 8.765625 C-3.62833225 10.37838025 -4.6186945 11.97563363 -5.625 13.5625 C-7.51542409 16.91370635 -8.71004649 20.3758449 -10 24 C-10.33 24 -10.66 24 -11 24 C-10.64606546 18.45502551 -9.04726068 14.84479001 -6.15625 10.11328125 C-5.03225629 8.05895491 -4.45411135 6.28603783 -4 4 C-3.01 4 -2.02 4 -1 4 C-0.67 2.68 -0.34 1.36 0 0 Z " fill="#DDE2FE" transform="translate(421,352)"/>
<path d="M0 0 C3.86668219 0.46868875 6.63593832 1.81631687 9.953125 3.8125 C13.85998837 6.07907722 17.94708174 8.01023732 22 10 C19.64308119 10.82717993 18.4003229 11.13637481 16.0012207 10.3190918 C15.31632568 9.94953369 14.63143066 9.57997559 13.92578125 9.19921875 C13.17619141 8.79896484 12.42660156 8.39871094 11.65429688 7.98632812 C10.88150391 7.55771484 10.10871094 7.12910156 9.3125 6.6875 C8.52810547 6.27048828 7.74371094 5.85347656 6.93554688 5.42382812 C1.14213471 2.28426941 1.14213471 2.28426941 0 0 Z " fill="#B1BCFD" transform="translate(426,698)"/>
<path d="M0 0 C0.66 0 1.32 0 2 0 C0.47127838 7.17198122 -1.12554371 14.22449588 -4 21 C-4.33 21 -4.66 21 -5 21 C-3.9478458 3.9478458 -3.9478458 3.9478458 0 0 Z " fill="#3853F9" transform="translate(290,334)"/>
<path d="M0 0 C4.96512613 0.81694567 9.92033043 1.68493564 14.875 2.5625 C15.65875 2.70107422 16.4425 2.83964844 17.25 2.98242188 C19.16671297 3.32135283 21.08336295 3.66063999 23 4 C23 4.33 23 4.66 23 5 C15.52906777 5.29883729 8.36955011 4.15925507 1 3 C0.67 2.01 0.34 1.02 0 0 Z " fill="#A8B4FE" transform="translate(524,606)"/>
<path d="M0 0 C0.33 0 0.66 0 1 0 C2.20443195 7.05453001 3.28100502 13.83437211 3 21 C2.34 21 1.68 21 1 21 C0.21311555 18.22276075 -0.11949924 15.77389923 -0.09765625 12.890625 C-0.09443359 12.13652344 -0.09121094 11.38242187 -0.08789062 10.60546875 C-0.07951172 9.82816406 -0.07113281 9.05085938 -0.0625 8.25 C-0.05798828 7.45722656 -0.05347656 6.66445313 -0.04882812 5.84765625 C-0.03708565 3.89840492 -0.01915146 1.94919262 0 0 Z " fill="#546BFA" transform="translate(274,464)"/>
<path d="M0 0 C0.66 0.33 1.32 0.66 2 1 C-7.51145038 8 -7.51145038 8 -12 8 C-12 8.66 -12 9.32 -12 10 C-13.65 10.33 -15.3 10.66 -17 11 C-16.01523164 8.49093594 -15.39868805 7.2368207 -13.046875 5.83984375 C-12.28890625 5.54207031 -11.5309375 5.24429687 -10.75 4.9375 C-7.91092969 3.7854135 -5.28357876 2.62225062 -2.5625 1.1875 C-1.716875 0.795625 -0.87125 0.40375 0 0 Z " fill="#4D65FA" transform="translate(500,281)"/>
<path d="M0 0 C0.66 0.33 1.32 0.66 2 1 C0.35446591 2.69393215 -1.30419392 4.35732623 -3 6 C-3.50402344 6.48855469 -4.00804687 6.97710937 -4.52734375 7.48046875 C-6.0625 8.875 -6.0625 8.875 -9 11 C-11.18359375 10.6328125 -11.18359375 10.6328125 -13 10 C-11.3970551 8.70681744 -9.79259858 7.41550844 -8.1875 6.125 C-7.29417969 5.40570313 -6.40085937 4.68640625 -5.48046875 3.9453125 C-3 2 -3 2 0 0 Z " fill="#BDC7FD" transform="translate(402,194)"/>
<path d="M0 0 C7.7498635 0.52541447 14.6450086 2.55591476 22 5 C22 5.33 22 5.66 22 6 C15.84765625 6.09765625 15.84765625 6.09765625 14 6 C13.67 5.67 13.34 5.34 13 5 C11.65252916 4.76924918 10.29622435 4.58846937 8.9375 4.4375 C7.638125 4.293125 6.33875 4.14875 5 4 C5 3.34 5 2.68 5 2 C3.35 1.67 1.7 1.34 0 1 C0 0.67 0 0.34 0 0 Z " fill="#4962F9" transform="translate(487,725)"/>
<path d="M0 0 C2.95086507 4.4262976 4.35862846 8.93500054 5.6875 14.0625 C5.95949219 15.08472656 6.23148437 16.10695313 6.51171875 17.16015625 C6.98422953 19.90827896 6.92534089 21.41028759 6 24 C2.91848367 16.36957862 0 8.2915676 0 0 Z " fill="#7C8EFC" transform="translate(281,507)"/>
<path d="M0 0 C0.33 0 0.66 0 1 0 C1.30071865 7.55137932 0.42625566 14.58856436 -1 22 C-1.33 22 -1.66 22 -2 22 C-2 16.39 -2 10.78 -2 5 C-1.34 5 -0.68 5 0 5 C0 3.35 0 1.7 0 0 Z " fill="#556CFA" transform="translate(276,392)"/>
<path d="M0 0 C0.93423645 3.01031744 1.04449911 3.86650268 0 7 C-0.26669716 9.73470417 -0.4435922 12.46910508 -0.62109375 15.2109375 C-1.01155705 18.08506945 -1.81588854 20.36331457 -3 23 C-3.33 23 -3.66 23 -4 23 C-4.65720455 14.94924431 -2.22928846 7.64327471 0 0 Z " fill="#B1BCFD" transform="translate(281,373)"/>
<path d="M0 0 C-1.31181541 3.93544623 -3.95958727 5.74938163 -7.1484375 8.14453125 C-9.49514852 9.22877115 -10.61653863 8.85573613 -13 8 C-10.62567936 5.37575087 -8.05729109 3.75794238 -5 2 C-2 0 -2 0 0 0 Z " fill="#B1BCFD" transform="translate(417,185)"/>
<path d="M0 0 C1.6852084 4.07679159 0.16939007 6.83075593 -1.4375 10.75 C-1.91058594 11.92046875 -2.38367188 13.0909375 -2.87109375 14.296875 C-3.24363281 15.18890625 -3.61617188 16.0809375 -4 17 C-5.27551076 12.54058071 -5.30244676 8.41958606 -3.0390625 4.21484375 C-2.07827919 2.77366878 -1.04462982 1.38160718 0 0 Z " fill="#8495FB" transform="translate(412,372)"/>
<path d="M0 0 C4.31931387 0.61611835 8.25208775 1.64238578 12.375 3.0625 C13.43460938 3.42472656 14.49421875 3.78695312 15.5859375 4.16015625 C16.38257813 4.43730469 17.17921875 4.71445312 18 5 C18 5.33 18 5.66 18 6 C14.7 5.67 11.4 5.34 8 5 C8 4.34 8 3.68 8 3 C6.865625 2.87625 5.73125 2.7525 4.5625 2.625 C3.386875 2.41875 2.21125 2.2125 1 2 C0.67 1.34 0.34 0.68 0 0 Z " fill="#CDD4FE" transform="translate(505,600)"/>
<path d="M0 0 C4.00748653 0.58487641 6.85736768 1.84394575 10.3125 3.9375 C11.19550781 4.46214844 12.07851563 4.98679687 12.98828125 5.52734375 C13.65214844 6.01332031 14.31601562 6.49929688 15 7 C15 7.66 15 8.32 15 9 C9.26800429 7.53025751 4.66416601 4.55513098 0 1 C0 0.67 0 0.34 0 0 Z " fill="#3550F8" transform="translate(478,583)"/>
<path d="M0 0 C1.45792884 -0.05399736 2.91642712 -0.09279177 4.375 -0.125 C5.18710937 -0.14820313 5.99921875 -0.17140625 6.8359375 -0.1953125 C9 0 9 0 11 2 C12.96690374 2.67292501 12.96690374 2.67292501 15.125 3.125 C16.40375 3.41375 17.6825 3.7025 19 4 C15.17818986 5.40258549 12.2648655 4.61386752 8.375 3.6875 C7.22773437 3.42324219 6.08046875 3.15898438 4.8984375 2.88671875 C2 2 2 2 0 0 Z " fill="#4E66FA" transform="translate(521,604)"/>
<path d="M0 0 C0.99 0 1.98 0 3 0 C3.99 4.29 4.98 8.58 6 13 C5.34 13 4.68 13 4 13 C3.32404685 11.58774074 2.65959941 10.16997095 2 8.75 C1.62875 7.96109375 1.2575 7.1721875 0.875 6.359375 C0 4 0 4 0 0 Z " fill="#7789FB" transform="translate(301,564)"/>
<path d="M0 0 C1.875 0.625 1.875 0.625 4 2 C5.66783878 5.75263725 6.24045528 8.91226018 6 13 C5.67 12.34 5.34 11.68 5 11 C4.34 11 3.68 11 3 11 C0 4.5 0 4.5 0 0 Z " fill="#5168FA" transform="translate(409,495)"/>
<path d="M0 0 C0.71484375 1.671875 0.71484375 1.671875 1 4 C-0.43359375 6.578125 -0.43359375 6.578125 -2.4375 9.25 C-3.09621094 10.14203125 -3.75492187 11.0340625 -4.43359375 11.953125 C-4.95050781 12.62859375 -5.46742188 13.3040625 -6 14 C-6.71484375 12.328125 -6.71484375 12.328125 -7 10 C-5.56640625 7.421875 -5.56640625 7.421875 -3.5625 4.75 C-2.90378906 3.85796875 -2.24507813 2.9659375 -1.56640625 2.046875 C-1.04949219 1.37140625 -0.53257812 0.6959375 0 0 Z " fill="#A5B1FD" transform="translate(321,277)"/>
<path d="M0 0 C5.28 0 10.56 0 16 0 C16 0.33 16 0.66 16 1 C9.25846717 2.25841946 2.86515862 3.26404456 -4 3 C-2.68 2.67 -1.36 2.34 0 2 C0 1.34 0 0.68 0 0 Z " fill="#546BF9" transform="translate(530,142)"/>
<path d="M0 0 C0.66 0.33 1.32 0.66 2 1 C0.95285076 2.32477959 -0.11344669 3.63443746 -1.1875 4.9375 C-1.77917969 5.66839844 -2.37085938 6.39929688 -2.98046875 7.15234375 C-5.32505203 9.29738803 -6.88391498 9.66094412 -10 10 C-6.92118304 6.12948725 -3.99926986 2.97088618 0 0 Z " fill="#C2CBFD" transform="translate(387,205)"/>
<path d="M0 0 C-2.45404224 1.19716659 -4.91251679 2.3829346 -7.375 3.5625 C-8.42300781 4.07586914 -8.42300781 4.07586914 -9.4921875 4.59960938 C-11.30052216 5.46030712 -13.14851956 6.23652436 -15 7 C-15.66 6.67 -16.32 6.34 -17 6 C-16 4 -16 4 -13.125 3 C-12.09375 2.67 -11.0625 2.34 -10 2 C-9.01 1.34 -8.02 0.68 -7 0 C-2.44444444 -1.22222222 -2.44444444 -1.22222222 0 0 Z " fill="#4C64F9" transform="translate(466,161)"/>
<path d="M0 0 C1.2065625 0.0309375 1.2065625 0.0309375 2.4375 0.0625 C0.08014116 2.79207339 -2.14383526 3.95143396 -5.5625 5.0625 C-6.5525 5.0625 -7.5425 5.0625 -8.5625 5.0625 C-8.5625 5.7225 -8.5625 6.3825 -8.5625 7.0625 C-10.5425 7.3925 -12.5225 7.7225 -14.5625 8.0625 C-13.16211539 5.26173078 -11.36221757 4.83225197 -8.5625 3.5 C-1.31808606 0.03214844 -1.31808606 0.03214844 0 0 Z " fill="#334FF8" transform="translate(444.5625,167.9375)"/>
<path d="M0 0 C3.25524265 3.02272532 5.61820737 6.25718301 8 10 C7.67 10.66 7.34 11.32 7 12 C4.35247996 9.42215154 2.05567935 7.08351902 0 4 C0 2.68 0 1.36 0 0 Z " fill="#8696FB" transform="translate(426,530)"/>
<path d="M0 0 C0.8125 1.625 0.8125 1.625 1 4 C-3 9.66666667 -3 9.66666667 -7 11 C-5.5140084 6.40693504 -3.14985318 3.56430755 0 0 Z " fill="#4E66F9" transform="translate(435,333)"/>
<path d="M0 0 C0.6015625 1.83984375 0.6015625 1.83984375 1 4 C-1.41216705 7.80380189 -4.04319558 9.91168655 -8 12 C-6.59023295 8.96147295 -4.91129772 6.4060405 -2.875 3.75 C-2.06675781 2.69039063 -2.06675781 2.69039063 -1.2421875 1.609375 C-0.83226562 1.07828125 -0.42234375 0.5471875 0 0 Z " fill="#B4BEFD" transform="translate(334,259)"/>
<path d="M0 0 C3.0319853 1.51599265 3.41024437 3.8596433 4.6875 6.9375 C5.14511719 8.01902344 5.60273438 9.10054687 6.07421875 10.21484375 C7 13 7 13 6 15 C2.47086025 9.98627748 0.38528505 6.16456078 0 0 Z " fill="#657AFA" transform="translate(294,549)"/>
<path d="M0 0 C0.33 0.66 0.66 1.32 1 2 C-0.21484375 4.8203125 -0.21484375 4.8203125 -1.9375 8.125 C-2.50339844 9.22070312 -3.06929688 10.31640625 -3.65234375 11.4453125 C-4.09707031 12.28835938 -4.54179687 13.13140625 -5 14 C-5.68359375 12.328125 -5.68359375 12.328125 -6 10 C-4.78515625 7.421875 -4.78515625 7.421875 -3.0625 4.75 C-2.49660156 3.85796875 -1.93070312 2.9659375 -1.34765625 2.046875 C-0.90292969 1.37140625 -0.45820313 0.6959375 0 0 Z " fill="#798BFB" transform="translate(419,358)"/>
<path d="M0 0 C3.45201639 1.47721422 5.64961936 3.43794001 8.25 6.125 C8.95640625 6.84945312 9.6628125 7.57390625 10.390625 8.3203125 C11.18726563 9.15175781 11.18726563 9.15175781 12 10 C9 10 9 10 6 9 C4.94228261 7.36935236 3.94726954 5.69719127 3 4 C2.01755155 2.65368175 1.02323436 1.31558703 0 0 Z " fill="#5B71F9" transform="translate(453,563)"/>
<path d="M0 0 C0.66 0.33 1.32 0.66 2 1 C1.34 1.66 0.68 2.32 0 3 C-0.99 3 -1.98 3 -3 3 C-3.33 3.99 -3.66 4.98 -4 6 C-6.4375 7.75 -6.4375 7.75 -9 9 C-9.66 8.67 -10.32 8.34 -11 8 C-9.92130607 7.03644756 -8.83681257 6.07938583 -7.75 5.125 C-6.84507812 4.32449219 -6.84507812 4.32449219 -5.921875 3.5078125 C-3.99948454 1.99959559 -2.27452566 0.8928923 0 0 Z " fill="#4B64F9" transform="translate(428,176)"/>
<path d="M0 0 C7.75 -0.125 7.75 -0.125 10 1 C10 1.66 10 2.32 10 3 C10.66 3.33 11.32 3.66 12 4 C7.80530429 3.40075776 3.99000166 2.42500059 0 1 C0 0.67 0 0.34 0 0 Z " fill="#4C64F9" transform="translate(509,600)"/>
<path d="M0 0 C2.31 1.98 4.62 3.96 7 6 C6.67 7.32 6.34 8.64 6 10 C2.51668565 6.98112756 1.20842856 4.43090471 0 0 Z " fill="#B6C0FE" transform="translate(432,541)"/>
<path d="M0 0 C0.33 0 0.66 0 1 0 C1.1799928 5.21979128 0.97094808 9.07262981 -1 14 C-1.33 14 -1.66 14 -2 14 C-2.1799928 8.78020872 -1.97094808 4.92737019 0 0 Z " fill="#B0BBFE" transform="translate(284,359)"/>
<path d="M0 0 C1.06528748 2.73019786 1.07998186 3.79298812 0.00390625 6.578125 C-0.47175781 7.45984375 -0.94742187 8.3415625 -1.4375 9.25 C-1.91058594 10.14203125 -2.38367188 11.0340625 -2.87109375 11.953125 C-3.24363281 12.62859375 -3.61617188 13.3040625 -4 14 C-5.06528748 11.26980214 -5.07998186 10.20701188 -4.00390625 7.421875 C-3.52824219 6.54015625 -3.05257813 5.6584375 -2.5625 4.75 C-2.08941406 3.85796875 -1.61632812 2.9659375 -1.12890625 2.046875 C-0.75636719 1.37140625 -0.38382812 0.6959375 0 0 Z " fill="#9BA9FD" transform="translate(297,322)"/>
<path d="M0 0 C-3.62535821 3.17218843 -7.51150278 4.42902597 -12 6 C-12 5.34 -12 4.68 -12 4 C-10.390625 2.67578125 -10.390625 2.67578125 -8.25 1.3125 C-7.55390625 0.85488281 -6.8578125 0.39726562 -6.140625 -0.07421875 C-3.60909275 -1.16906025 -2.53899138 -0.9435441 0 0 Z " fill="#B2BDFD" transform="translate(484,291)"/>
<path d="M0 0 C3.40843742 2.88406243 4.86591384 4.3708265 5.8125 8.8125 C5.9053125 10.3903125 5.9053125 10.3903125 6 12 C3.25207517 8.59780735 0 4.51535412 0 0 Z " fill="#CED5FE" transform="translate(294,547)"/>
<path d="M0 0 C4.83256305 0.41421969 6.82679218 2.46413986 10 6 C6.62972148 6 5.93297304 5.50175992 3.3125 3.5625 C2.68988281 3.11003906 2.06726563 2.65757812 1.42578125 2.19140625 C0.95527344 1.79824219 0.48476563 1.40507813 0 1 C0 0.67 0 0.34 0 0 Z " fill="#9EABFC" transform="translate(404,685)"/>
<path d="M0 0 C0.66 0.33 1.32 0.66 2 1 C-0.81070808 5.21606212 -4.5572744 6.79754241 -9 9 C-8.06725891 7.87105124 -7.12859878 6.74699124 -6.1875 5.625 C-5.66542969 4.99851562 -5.14335937 4.37203125 -4.60546875 3.7265625 C-3 2 -3 2 0 0 Z " fill="#5269FA" transform="translate(468,300)"/>
<path d="M0 0 C6.75 1.625 6.75 1.625 9 5 C5.65626525 4.44271087 2.96687001 3.64826111 0 2 C0 1.34 0 0.68 0 0 Z " fill="#3954FA" transform="translate(442,708)"/>
<path d="M0 0 C1 2 1 2 0.44140625 4.1640625 C0.15136719 4.97617187 -0.13867188 5.78828125 -0.4375 6.625 C-0.72496094 7.44226563 -1.01242187 8.25953125 -1.30859375 9.1015625 C-1.53675781 9.72804688 -1.76492188 10.35453125 -2 11 C-2.33 11 -2.66 11 -3 11 C-3.32613618 6.32538149 -2.70582788 3.83325617 0 0 Z " fill="#CFD6FE" transform="translate(407,383)"/>
<path d="M0 0 C1.32 0.33 2.64 0.66 4 1 C4 1.66 4 2.32 4 3 C4.66 3 5.32 3 6 3 C6.66 4.65 7.32 6.3 8 8 C1.42857143 4 1.42857143 4 0 0 Z " fill="#A6B2FC" transform="translate(349,637)"/>
<path d="M0 0 C0.66 0 1.32 0 2 0 C0.66511872 3.59391114 -0.96022723 6.75490696 -3 10 C-3.625 8.1875 -3.625 8.1875 -4 6 C-3.34 5.01 -2.68 4.02 -2 3 C-1.34 3 -0.68 3 0 3 C0 2.01 0 1.02 0 0 Z " fill="#AEBAFD" transform="translate(302,312)"/>
<path d="M0 0 C0.59296875 0.21527344 1.1859375 0.43054688 1.796875 0.65234375 C0.51163239 1.51614634 -0.78154919 2.36814744 -2.078125 3.21484375 C-2.79742187 3.69050781 -3.51671875 4.16617187 -4.2578125 4.65625 C-4.89976562 4.98496094 -5.54171875 5.31367188 -6.203125 5.65234375 C-6.863125 5.32234375 -7.523125 4.99234375 -8.203125 4.65234375 C-2.74543269 -0.43323317 -2.74543269 -0.43323317 0 0 Z " fill="#5369F8" transform="translate(478.203125,294.34765625)"/>
<path d="M0 0 C-1 2 -1 2 -3.06640625 2.8515625 C-4.30197266 3.23441406 -4.30197266 3.23441406 -5.5625 3.625 C-6.80193359 4.01558594 -6.80193359 4.01558594 -8.06640625 4.4140625 C-8.70449219 4.60742188 -9.34257812 4.80078125 -10 5 C-9.67 4.34 -9.34 3.68 -9 3 C-8.34 3 -7.68 3 -7 3 C-7 2.34 -7 1.68 -7 1 C-4.53721199 -0.231394 -2.7204945 -0.07159196 0 0 Z " fill="#BFC8FE" transform="translate(504,279)"/>
<path d="M0 0 C0.763125 0.639375 1.52625 1.27875 2.3125 1.9375 C4.88246713 4.14232781 4.88246713 4.14232781 8 5 C7.67 6.32 7.34 7.64 7 9 C5.82737096 7.88121617 4.66204862 6.75476949 3.5 5.625 C2.8503125 4.99851562 2.200625 4.37203125 1.53125 3.7265625 C0 2 0 2 0 0 Z " fill="#8C9CFC" transform="translate(341,628)"/>
<path d="M0 0 C0.33 1.32 0.66 2.64 1 4 C1.66 4 2.32 4 3 4 C3.33 5.98 3.66 7.96 4 10 C0.9083091 7.47043472 0.09068668 4.77545388 -1 1 C-0.67 0.67 -0.34 0.34 0 0 Z " fill="#4B64FA" transform="translate(422,520)"/>
<path d="M0 0 C0.33 0.66 0.66 1.32 1 2 C0.00390625 4.1640625 0.00390625 4.1640625 -1.4375 6.625 C-1.91058594 7.44226563 -2.38367188 8.25953125 -2.87109375 9.1015625 C-3.24363281 9.72804688 -3.61617188 10.35453125 -4 11 C-5.04449911 7.86650268 -4.93423645 7.01031744 -4 4 C-3.01 4 -2.02 4 -1 4 C-0.67 2.68 -0.34 1.36 0 0 Z " fill="#C1CAFE" transform="translate(421,352)"/>
<path d="M0 0 C0.33 0.66 0.66 1.32 1 2 C0.22265625 3.9453125 0.22265625 3.9453125 -0.9375 6.125 C-1.31777344 6.84945313 -1.69804687 7.57390625 -2.08984375 8.3203125 C-2.39019531 8.87460937 -2.69054687 9.42890625 -3 10 C-4 7 -4 7 -2.625 3.875 C-1 1 -1 1 0 0 Z " fill="#3450F8" transform="translate(296,322)"/>
<path d="M0 0 C0.88492145 2.47778006 1.11637742 3.66056586 0.25 6.1875 C-1 8 -1 8 -4 9 C-2.25 2.25 -2.25 2.25 0 0 Z " fill="#BFC8FE" transform="translate(313,291)"/>
<path d="M0 0 C5.75 0.75 5.75 0.75 8 3 C5.69 3 3.38 3 1 3 C0.67 2.01 0.34 1.02 0 0 Z " fill="#CDD4FE" transform="translate(524,606)"/>
<path d="M0 0 C3.37503669 1.1858237 5.64722731 2.27573689 8 5 C5.36 4.34 2.72 3.68 0 3 C0 2.01 0 1.02 0 0 Z " fill="#B4BFFD" transform="translate(479,585)"/>
</svg>
